<svg xmlns="http://www.w3.org/2000/svg" width="1322" height="1128" version="1.1">
<style type="text/css">
.l0{
  fill-opacity:0;
  fill: #ffffff;
  stroke: #ffffff;
  stroke-linecap:round;
  stroke-linejoin:round;
  stroke-width: 0.651945;
}
.l1{
  fill: #0044ee;
  stroke: #0044ee;
  stroke-linecap:round;
  stroke-linejoin:round;
  stroke-width: 0.651945;
}
.l2{
  fill: none;
  stroke: #aaaaaa;
  stroke-linecap:round;
  stroke-linejoin:round;
  stroke-width: 0.651945;
}
.l3{
  fill: #222222; fill-opacity: 0.5;
  stroke: #222222;
  stroke-linecap:round;
  stroke-linejoin:round;
  stroke-width: 0.651945;
}
.l4{
  fill: #229900;
  stroke: #229900;
  stroke-linecap:round;
  stroke-linejoin:round;
  stroke-width: 0.651945;
}
.l5{
  fill: #bb2200;
  stroke: #bb2200;
  stroke-linecap:round;
  stroke-linejoin:round;
  stroke-width: 0.651945;
}
.l6{
  fill: #00ccee; fill-opacity: 0.5;
  stroke: #00ccee;
  stroke-linecap:round;
  stroke-linejoin:round;
  stroke-width: 0.651945;
}
.l7{
  fill: #ff0000; fill-opacity: 0.5;
  stroke: #ff0000;
  stroke-linecap:round;
  stroke-linejoin:round;
  stroke-width: 0.651945;
}
.l8{
  fill: #888800; fill-opacity: 0.5;
  stroke: #888800;
  stroke-linecap:round;
  stroke-linejoin:round;
  stroke-width: 0.651945;
}
.l9{
  fill: #00aaaa; fill-opacity: 0.5;
  stroke: #00aaaa;
  stroke-linecap:round;
  stroke-linejoin:round;
  stroke-width: 0.651945;
}
.l10{
  fill: #880088;
  stroke: #880088;
  stroke-linecap:round;
  stroke-linejoin:round;
  stroke-width: 0.651945;
}
.l11{
  fill: #00ff00; fill-opacity: 0.5;
  stroke: #00ff00;
  stroke-linecap:round;
  stroke-linejoin:round;
  stroke-width: 0.651945;
}
.l12{
  fill: #0000cc; fill-opacity: 0.5;
  stroke: #0000cc;
  stroke-linecap:round;
  stroke-linejoin:round;
  stroke-width: 0.651945;
}
.l13{
  fill: #666600; fill-opacity: 0.5;
  stroke: #666600;
  stroke-linecap:round;
  stroke-linejoin:round;
  stroke-width: 0.651945;
}
.l14{
  fill: none;
  stroke: #557755;
  stroke-linecap:round;
  stroke-linejoin:round;
  stroke-width: 0.651945;
}
.l15{
  fill: #aa2222; fill-opacity: 0.5;
  stroke: #aa2222;
  stroke-linecap:round;
  stroke-linejoin:round;
  stroke-width: 0.651945;
}
.l16{
  fill: #7ccc40; fill-opacity: 0.5;
  stroke: #7ccc40;
  stroke-linecap:round;
  stroke-linejoin:round;
  stroke-width: 0.651945;
}
.l17{
  fill: none;
  stroke: #00ffcc;
  stroke-linecap:round;
  stroke-linejoin:round;
  stroke-width: 0.651945;
}
.l18{
  fill: #ce0097; fill-opacity: 0.5;
  stroke: #ce0097;
  stroke-linecap:round;
  stroke-linejoin:round;
  stroke-width: 0.651945;
}
.l19{
  fill: none;
  stroke: #d2d46b;
  stroke-linecap:round;
  stroke-linejoin:round;
  stroke-width: 0.651945;
}
.l20{
  fill: none;
  stroke: #ef6158;
  stroke-linecap:round;
  stroke-linejoin:round;
  stroke-width: 0.651945;
}
.l21{
  fill: none;
  stroke: #fdb200;
  stroke-linecap:round;
  stroke-linejoin:round;
  stroke-width: 0.651945;
}
text {font-family: Sans-Serif;}
</style>
<rect x="0" y="0" width="1322" height="1128" fill="rgb(255,255,255)" stroke="rgb(255,255,255)" stroke-width="0.651945" />
<text fill="#222222"  xml:space="preserve" font-size="31.39" transform="translate(85.8402, 414.182)" >PFET</text>
<text fill="#222222"  xml:space="preserve" font-size="31.39" transform="translate(83.8402, 559.059)" >NFET</text>
<text fill="#222222"  xml:space="preserve" font-size="31.39" transform="translate(92.8402, 709.972)" >RES</text>
<text fill="#222222"  xml:space="preserve" font-size="31.39" transform="translate(72.8402, 924.269)" >DIODE</text>
<text fill="#222222"  xml:space="preserve" font-size="31.39" transform="translate(93.3402, 999.726)" >PNP</text>
<text fill="#ff0000"  xml:space="preserve" font-size="9.41699" transform="translate(395.484, 593.436)" >No Model</text>
<text fill="#ff0000"  xml:space="preserve" font-size="9.41699" transform="translate(492.068, 665.875)" >No Model</text>
<text fill="#ff0000"  xml:space="preserve" font-size="9.41699" transform="translate(395.484, 460.633)" >No Model</text>
<text fill="#222222"  xml:space="preserve" font-size="31.39" transform="translate(92.3402, 314.58)" >MIM</text>
<text fill="#222222"  xml:space="preserve" font-size="6.27799" transform="translate(274.753, 844.121)" >Available models:</text>
<text fill="#222222"  xml:space="preserve" font-size="6.27799" transform="translate(274.753, 851.121)" >sky130_fd_pr__diode_pw2nd_05v5</text>
<text fill="#222222"  xml:space="preserve" font-size="6.27799" transform="translate(274.753, 858.121)" >sky130_fd_pr__diode_pw2nd_11v0</text>
<text fill="#222222"  xml:space="preserve" font-size="6.27799" transform="translate(274.753, 865.121)" >sky130_fd_pr__diode_pw2nd_05v5_nvt</text>
<text fill="#222222"  xml:space="preserve" font-size="6.27799" transform="translate(274.753, 872.121)" >sky130_fd_pr__diode_pw2nd_05v5_lvt</text>
<text fill="#222222"  xml:space="preserve" font-size="6.27799" transform="translate(274.753, 880.121)" >sky130_fd_pr__diode_pd2nw_05v5</text>
<text fill="#222222"  xml:space="preserve" font-size="6.27799" transform="translate(274.753, 887.121)" >sky130_fd_pr__diode_pd2nw_11v0</text>
<text fill="#222222"  xml:space="preserve" font-size="6.27799" transform="translate(274.753, 894.121)" >sky130_fd_pr__diode_pd2nw_05v5_hvt</text>
<text fill="#222222"  xml:space="preserve" font-size="6.27799" transform="translate(274.753, 901.121)" >sky130_fd_pr__diode_pd2nw_05v5_lvt</text>
<text fill="#222222"  xml:space="preserve" font-size="6.27799" transform="translate(274.753, 908.121)" >sky130_fd_pr__model__parasitic__rf_diode_ps2nw</text>
<text fill="#222222"  xml:space="preserve" font-size="6.27799" transform="translate(274.753, 916.121)" >sky130_fd_pr__model__parasitic__rf_diode_pw2dn</text>
<text fill="#222222"  xml:space="preserve" font-size="6.27799" transform="translate(274.753, 923.121)" >sky130_fd_pr__model__parasitic__diode_pw2dn</text>
<text fill="#222222"  xml:space="preserve" font-size="6.27799" transform="translate(274.753, 930.121)" >sky130_fd_pr__model__parasitic__diode_ps2dn</text>
<text fill="#222222"  xml:space="preserve" font-size="6.27799" transform="translate(274.753, 937.121)" >sky130_fd_pr__model__parasitic__diode_ps2nw</text>
<text fill="#222222"  xml:space="preserve" font-size="6.27799" transform="translate(534.324, 904.486)" >Available_models:</text>
<text fill="#222222"  xml:space="preserve" font-size="6.27799" transform="translate(534.324, 911.486)" >sky130_fd_pr__diode_pw2nd_05v5</text>
<text fill="#222222"  xml:space="preserve" font-size="6.27799" transform="translate(534.324, 918.486)" >sky130_fd_pr__diode_pw2nd_11v0</text>
<text fill="#222222"  xml:space="preserve" font-size="6.27799" transform="translate(534.324, 925.486)" >sky130_fd_pr__diode_pd2nw_05v5</text>
<text fill="#222222"  xml:space="preserve" font-size="6.27799" transform="translate(534.324, 932.486)" >sky130_fd_pr__diode_pd2nw_11v0</text>
<text fill="#222222"  xml:space="preserve" font-size="6.27799" transform="translate(534.324, 940.486)" >sky130_fd_pr__model__parasitic__diode_ps2dn</text>
<text fill="#222222"  xml:space="preserve" font-size="31.39" transform="translate(9.23059, 224.032)" >VARACTORS</text>
<text fill="#222222"  xml:space="preserve" font-size="31.39" transform="translate(8.34018, 151.593)" >PERP. VPP CAP</text>
<text fill="#222222"  xml:space="preserve" font-size="6.27799" transform="translate(486.032, 95.5908)" >Available models:</text>
<text fill="#222222"  xml:space="preserve" font-size="6.27799" transform="translate(486.032, 102.591)" >cap_vpp_11p5x11p7_l1m1m2m3m4_shieldm5</text>
<text fill="#222222"  xml:space="preserve" font-size="6.27799" transform="translate(486.032, 109.591)" >cap_vpp_11p5x11p7_l1m1m2m3m4_shieldpom5</text>
<text fill="#222222"  xml:space="preserve" font-size="6.27799" transform="translate(486.032, 116.591)" >cap_vpp_11p5x11p7_m1m2m3m4_shieldl1m5</text>
<text fill="#222222"  xml:space="preserve" font-size="6.27799" transform="translate(486.032, 123.591)" >cap_vpp_04p4x04p6_m1m2m3_shieldl1m5_floatm4</text>
<text fill="#222222"  xml:space="preserve" font-size="6.27799" transform="translate(486.032, 131.591)" >cap_vpp_08p6x07p8_m1m2m3_shieldl1m5_floatm4</text>
<text fill="#222222"  xml:space="preserve" font-size="6.27799" transform="translate(486.032, 138.591)" >cap_vpp_11p5x11p7_m1m2m3_shieldl1m5_floatm4</text>
<text fill="#222222"  xml:space="preserve" font-size="6.27799" transform="translate(486.032, 145.591)" >cap_vpp_11p5x11p7_l1m1m2m3_shieldm4</text>
<text fill="#222222"  xml:space="preserve" font-size="6.27799" transform="translate(486.032, 152.591)" >cap_vpp_06p8x06p1_l1m1m2m3_shieldpom4</text>
<text fill="#222222"  xml:space="preserve" font-size="6.27799" transform="translate(486.032, 159.591)" >cap_vpp_06p8x06p1_m1m2m3_shieldl1m4</text>
<text fill="#222222"  xml:space="preserve" font-size="6.27799" transform="translate(486.032, 167.591)" >cap_vpp_11p3x11p8_l1m1m2m3m4_shieldm5</text>
<text fill="#ff0000"  xml:space="preserve" font-size="9.41699" transform="translate(498.105, 593.436)" >No Model</text>
<text fill="#ff0000"  xml:space="preserve" font-size="9.41699" transform="translate(594.689, 593.436)" >No Model</text>
<text fill="#ff0000"  xml:space="preserve" font-size="9.41699" transform="translate(679.201, 593.436)" >No Model</text>
<text fill="#ff0000"  xml:space="preserve" font-size="9.41699" transform="translate(1101.76, 593.436)" >No Model</text>
<text fill="#222222"  xml:space="preserve" font-size="31.39" transform="translate(783.578, 522.84)" >3 PIN</text>
<text fill="#222222"  xml:space="preserve" font-size="31.39" transform="translate(783.578, 558.84)" >NFET</text>
<text fill="#ff0000"  xml:space="preserve" font-size="9.41699" transform="translate(1095.72, 460.633)" >No Model</text>
<text fill="#222222"  xml:space="preserve" font-size="31.39" transform="translate(783.578, 396.073)" >3 PIN</text>
<text fill="#222222"  xml:space="preserve" font-size="31.39" transform="translate(783.578, 432.073)" >PFET</text>
<text fill="#222222"  xml:space="preserve" font-size="6.27799" transform="translate(458.868, 942.559)" >D1</text>
<text fill="#222222"  xml:space="preserve" font-size="6.27799" transform="translate(458.868, 919.922)" >diode_pw2nd_05v5</text>
<text fill="#222222"  xml:space="preserve" font-size="6.27799" transform="translate(458.868, 931.995)" >diode</text>
<text fill="#ff0000"  xml:space="preserve" font-size="4.70849" transform="translate(440.795, 943.689)" >d0</text>
<text fill="#ff0000"  xml:space="preserve" font-size="4.70849" transform="translate(440.795, 917.279)" >d1</text>
<text fill="#222222"  xml:space="preserve" font-size="6.27799" transform="translate(199.297, 942.559)" >D2</text>
<text fill="#222222"  xml:space="preserve" font-size="6.27799" transform="translate(199.297, 919.922)" >diode_pw2nd_11v0</text>
<text fill="#ff0000"  xml:space="preserve" font-size="4.70849" transform="translate(181.224, 943.689)" >d0</text>
<text fill="#ff0000"  xml:space="preserve" font-size="4.70849" transform="translate(181.224, 917.279)" >d1</text>
<text fill="#222222"  xml:space="preserve" font-size="6.27799" transform="translate(199.297, 931.995)" >lvsdiode</text>
<text fill="#222222"  xml:space="preserve" font-size="6.27799" transform="translate(330.591, 998.052)" >pnp05v5</text>
<text fill="#222222"  xml:space="preserve" font-size="6.27799" transform="translate(330.591, 973.151)" >Q1</text>
<text fill="#ff0000"  xml:space="preserve" font-size="4.70849" transform="translate(323.046, 966.067)" >e</text>
<text fill="#ff0000"  xml:space="preserve" font-size="4.70849" transform="translate(323.046, 1003.8)" >c</text>
<text fill="#ff0000"  xml:space="preserve" font-size="4.70849" transform="translate(307.595, 981.158)" >b</text>
<text fill="#ff0000"  xml:space="preserve" font-size="4.70849" transform="translate(330.664, 981.158)" >body</text>
<text fill="#222222"  xml:space="preserve" font-size="6.27799" transform="translate(235.516, 623.787)" >R1</text>
<text fill="#666600"  xml:space="preserve" font-size="6.27799" transform="translate(235.516, 638.878)" >1 * 2.65 / 2.65</text>
<text fill="#222222"  xml:space="preserve" font-size="6.27799" transform="translate(235.516, 631.333)" >res_iso_pw</text>
<text fill="#ff0000"  xml:space="preserve" font-size="4.70849" transform="translate(214.406, 629.908)" >B</text>
<text fill="#ff0000"  xml:space="preserve" font-size="4.70849" transform="translate(310.991, 629.908)" >B</text>
<text fill="#222222"  xml:space="preserve" font-size="6.27799" transform="translate(332.1, 623.787)" >R2</text>
<text fill="#666600"  xml:space="preserve" font-size="6.27799" transform="translate(332.1, 638.878)" >1 * 1 / 1</text>
<text fill="#222222"  xml:space="preserve" font-size="6.27799" transform="translate(332.1, 631.333)" >res_generic_nd</text>
<text fill="#222222"  xml:space="preserve" font-size="6.27799" transform="translate(428.685, 621.523)" >R3</text>
<text fill="#666600"  xml:space="preserve" font-size="6.27799" transform="translate(428.685, 642.651)" >1 * 1 / 1</text>
<text fill="#222222"  xml:space="preserve" font-size="6.27799" transform="translate(428.685, 632.087)" >res_generic_pd</text>
<text fill="#ff0000"  xml:space="preserve" font-size="4.70849" transform="translate(407.575, 629.908)" >B</text>
<text fill="#222222"  xml:space="preserve" font-size="6.27799" transform="translate(525.269, 621.523)" >R4</text>
<text fill="#666600"  xml:space="preserve" font-size="6.27799" transform="translate(525.269, 642.651)" >1 * 1 / 1</text>
<text fill="#222222"  xml:space="preserve" font-size="6.27799" transform="translate(525.269, 632.087)" >res_generic_po</text>
<text fill="#222222"  xml:space="preserve" font-size="6.27799" transform="translate(235.516, 699.998)" >R5</text>
<text fill="#666600"  xml:space="preserve" font-size="6.27799" transform="translate(235.516, 721.126)" >1 * 1 / 1</text>
<text fill="#222222"  xml:space="preserve" font-size="6.27799" transform="translate(235.516, 710.562)" >res_high_po</text>
<text fill="#ff0000"  xml:space="preserve" font-size="4.70849" transform="translate(214.406, 708.383)" >B</text>
<text fill="#222222"  xml:space="preserve" font-size="6.27799" transform="translate(332.1, 699.998)" >R6</text>
<text fill="#666600"  xml:space="preserve" font-size="6.27799" transform="translate(332.1, 721.126)" >1 * 0.35 / 0.35</text>
<text fill="#222222"  xml:space="preserve" font-size="6.27799" transform="translate(332.1, 710.562)" >res_high_po_0p35</text>
<text fill="#ff0000"  xml:space="preserve" font-size="4.70849" transform="translate(310.991, 708.383)" >B</text>
<text fill="#222222"  xml:space="preserve" font-size="6.27799" transform="translate(428.685, 699.998)" >R7</text>
<text fill="#666600"  xml:space="preserve" font-size="6.27799" transform="translate(428.685, 721.126)" >1 * 0.69 / 0.69</text>
<text fill="#222222"  xml:space="preserve" font-size="6.27799" transform="translate(428.685, 710.562)" >res_high_po_0p69</text>
<text fill="#ff0000"  xml:space="preserve" font-size="4.70849" transform="translate(407.575, 708.383)" >B</text>
<text fill="#222222"  xml:space="preserve" font-size="6.27799" transform="translate(525.269, 699.998)" >R8</text>
<text fill="#666600"  xml:space="preserve" font-size="6.27799" transform="translate(525.269, 721.126)" >1 * 1.41 / 1.41</text>
<text fill="#222222"  xml:space="preserve" font-size="6.27799" transform="translate(525.269, 710.562)" >res_high_po_1p41</text>
<text fill="#ff0000"  xml:space="preserve" font-size="4.70849" transform="translate(504.16, 708.383)" >B</text>
<text fill="#222222"  xml:space="preserve" font-size="6.27799" transform="translate(235.516, 778.473)" >R9</text>
<text fill="#666600"  xml:space="preserve" font-size="6.27799" transform="translate(235.516, 799.601)" >1 * 1 / 1</text>
<text fill="#222222"  xml:space="preserve" font-size="6.27799" transform="translate(235.516, 789.037)" >res_xhigh_po</text>
<text fill="#ff0000"  xml:space="preserve" font-size="4.70849" transform="translate(214.406, 786.858)" >B</text>
<text fill="#222222"  xml:space="preserve" font-size="6.27799" transform="translate(332.1, 778.473)" >R10</text>
<text fill="#666600"  xml:space="preserve" font-size="6.27799" transform="translate(332.1, 799.601)" >1 * 0.35 / 0.35</text>
<text fill="#222222"  xml:space="preserve" font-size="6.27799" transform="translate(332.1, 789.037)" >res_xhigh_po_0p35</text>
<text fill="#ff0000"  xml:space="preserve" font-size="4.70849" transform="translate(310.991, 786.858)" >B</text>
<text fill="#222222"  xml:space="preserve" font-size="6.27799" transform="translate(428.685, 778.473)" >R11</text>
<text fill="#666600"  xml:space="preserve" font-size="6.27799" transform="translate(428.685, 799.601)" >1 * 0.69 / 0.69</text>
<text fill="#222222"  xml:space="preserve" font-size="6.27799" transform="translate(428.685, 789.037)" >res_xhigh_po_0p69</text>
<text fill="#ff0000"  xml:space="preserve" font-size="4.70849" transform="translate(407.575, 786.858)" >B</text>
<text fill="#222222"  xml:space="preserve" font-size="6.27799" transform="translate(525.269, 778.473)" >R12</text>
<text fill="#666600"  xml:space="preserve" font-size="6.27799" transform="translate(525.269, 799.601)" >1 * 1.41 / 1.41</text>
<text fill="#222222"  xml:space="preserve" font-size="6.27799" transform="translate(525.269, 789.037)" >res_xhigh_po_1p41</text>
<text fill="#ff0000"  xml:space="preserve" font-size="4.70849" transform="translate(504.16, 786.858)" >B</text>
<text fill="#222222"  xml:space="preserve" font-size="6.27799" transform="translate(208.406, 494.002)" >M1</text>
<text fill="#ff0000"  xml:space="preserve" font-size="4.70849" transform="translate(227.97, 521.25)" >S</text>
<text fill="#ff0000"  xml:space="preserve" font-size="4.70849" transform="translate(227.97, 494.722)" >D</text>
<text fill="#ff0000"  xml:space="preserve" font-size="4.70849" transform="translate(226.461, 504.65)" >B</text>
<text fill="#ff0000"  xml:space="preserve" font-size="4.70849" transform="translate(204.352, 504.65)" >G</text>
<text fill="#222222"  xml:space="preserve" font-size="6.27799" transform="translate(232.498, 499.629)" >nfet_01v8_lvt</text>
<text fill="#666600"  xml:space="preserve" font-size="6.27799" transform="translate(233.252, 518.902)" >1 x 1 / 0.15</text>
<text fill="#229900"  xml:space="preserve" font-size="4.70849" transform="translate(208.406, 521.25)" >LVT</text>
<text fill="#222222"  xml:space="preserve" font-size="6.27799" transform="translate(304.991, 494.002)" >M2</text>
<text fill="#ff0000"  xml:space="preserve" font-size="4.70849" transform="translate(324.555, 521.25)" >S</text>
<text fill="#ff0000"  xml:space="preserve" font-size="4.70849" transform="translate(324.555, 494.722)" >D</text>
<text fill="#ff0000"  xml:space="preserve" font-size="4.70849" transform="translate(323.046, 504.65)" >B</text>
<text fill="#ff0000"  xml:space="preserve" font-size="4.70849" transform="translate(300.936, 504.65)" >G</text>
<text fill="#222222"  xml:space="preserve" font-size="6.27799" transform="translate(329.082, 499.629)" >nfet_01v8</text>
<text fill="#666600"  xml:space="preserve" font-size="6.27799" transform="translate(329.837, 518.902)" >1 x 1 / 0.15</text>
<text fill="#229900"  xml:space="preserve" font-size="6.27799" transform="translate(401.575, 522.675)" >3V</text>
<text fill="#222222"  xml:space="preserve" font-size="6.27799" transform="translate(401.575, 494.002)" >M3</text>
<text fill="#ff0000"  xml:space="preserve" font-size="4.70849" transform="translate(421.139, 521.25)" >S</text>
<text fill="#ff0000"  xml:space="preserve" font-size="4.70849" transform="translate(421.139, 494.722)" >D</text>
<text fill="#ff0000"  xml:space="preserve" font-size="4.70849" transform="translate(419.63, 504.65)" >B</text>
<text fill="#ff0000"  xml:space="preserve" font-size="4.70849" transform="translate(397.521, 504.65)" >G</text>
<text fill="#222222"  xml:space="preserve" font-size="6.27799" transform="translate(425.667, 499.629)" >nfet_03v3_nvt</text>
<text fill="#666600"  xml:space="preserve" font-size="6.27799" transform="translate(426.421, 518.902)" >1 x 1 / 0.5</text>
<text fill="#222222"  xml:space="preserve" font-size="6.27799" transform="translate(498.16, 494.002)" >M4</text>
<text fill="#ff0000"  xml:space="preserve" font-size="4.70849" transform="translate(517.724, 521.25)" >S</text>
<text fill="#ff0000"  xml:space="preserve" font-size="4.70849" transform="translate(517.724, 494.722)" >D</text>
<text fill="#ff0000"  xml:space="preserve" font-size="4.70849" transform="translate(516.215, 504.65)" >B</text>
<text fill="#ff0000"  xml:space="preserve" font-size="4.70849" transform="translate(494.105, 504.65)" >G</text>
<text fill="#222222"  xml:space="preserve" font-size="6.27799" transform="translate(522.251, 499.629)" >nfet_05v0_nvt</text>
<text fill="#666600"  xml:space="preserve" font-size="6.27799" transform="translate(523.006, 518.902)" >1 x 1 / 0.9</text>
<text fill="#222222"  xml:space="preserve" font-size="6.27799" transform="translate(208.406, 548.331)" >M5</text>
<text fill="#ff0000"  xml:space="preserve" font-size="4.70849" transform="translate(227.97, 575.579)" >S</text>
<text fill="#ff0000"  xml:space="preserve" font-size="4.70849" transform="translate(227.97, 549.05)" >D</text>
<text fill="#ff0000"  xml:space="preserve" font-size="4.70849" transform="translate(226.461, 558.979)" >B</text>
<text fill="#ff0000"  xml:space="preserve" font-size="4.70849" transform="translate(204.352, 558.979)" >G</text>
<text fill="#222222"  xml:space="preserve" font-size="6.27799" transform="translate(232.498, 553.957)" >nfet_g5v0d10v5</text>
<text fill="#666600"  xml:space="preserve" font-size="6.27799" transform="translate(233.252, 573.231)" >1 x 1 / 0.5</text>
<text fill="#222222"  xml:space="preserve" font-size="6.27799" transform="translate(304.991, 548.331)" >M6</text>
<text fill="#ff0000"  xml:space="preserve" font-size="4.70849" transform="translate(324.555, 575.579)" >S</text>
<text fill="#ff0000"  xml:space="preserve" font-size="4.70849" transform="translate(324.555, 549.05)" >D</text>
<text fill="#ff0000"  xml:space="preserve" font-size="4.70849" transform="translate(323.046, 558.979)" >B</text>
<text fill="#ff0000"  xml:space="preserve" font-size="4.70849" transform="translate(300.936, 558.979)" >G</text>
<text fill="#222222"  xml:space="preserve" font-size="6.27799" transform="translate(329.082, 553.957)" >nfet_g5v0d16v0</text>
<text fill="#666600"  xml:space="preserve" font-size="6.27799" transform="translate(329.837, 573.231)" >1 x 5.0 / 0.7</text>
<text fill="#222222"  xml:space="preserve" font-size="6.27799" transform="translate(401.575, 548.331)" >M7</text>
<text fill="#ff0000"  xml:space="preserve" font-size="4.70849" transform="translate(421.139, 575.579)" >S</text>
<text fill="#ff0000"  xml:space="preserve" font-size="4.70849" transform="translate(421.139, 549.05)" >D</text>
<text fill="#ff0000"  xml:space="preserve" font-size="4.70849" transform="translate(419.63, 558.979)" >B</text>
<text fill="#ff0000"  xml:space="preserve" font-size="4.70849" transform="translate(397.521, 558.979)" >G</text>
<text fill="#222222"  xml:space="preserve" font-size="6.27799" transform="translate(425.667, 553.957)" >nfet_20v0</text>
<text fill="#666600"  xml:space="preserve" font-size="6.27799" transform="translate(426.421, 573.231)" >1 x 20.0 / 0.5</text>
<text fill="#222222"  xml:space="preserve" font-size="6.27799" transform="translate(401.575, 355.162)" >M8</text>
<text fill="#ff0000"  xml:space="preserve" font-size="4.70849" transform="translate(421.139, 382.41)" >D</text>
<text fill="#ff0000"  xml:space="preserve" font-size="4.70849" transform="translate(421.139, 355.882)" >S</text>
<text fill="#ff0000"  xml:space="preserve" font-size="4.70849" transform="translate(419.63, 365.81)" >B</text>
<text fill="#ff0000"  xml:space="preserve" font-size="4.70849" transform="translate(397.521, 365.81)" >G</text>
<text fill="#222222"  xml:space="preserve" font-size="6.27799" transform="translate(425.667, 360.788)" >pfet_01v8_hvt</text>
<text fill="#666600"  xml:space="preserve" font-size="6.27799" transform="translate(426.421, 380.062)" >1 x 1 / 0.15</text>
<text fill="#229900"  xml:space="preserve" font-size="4.70849" transform="translate(400.575, 382.41)" >HVT</text>
<text fill="#222222"  xml:space="preserve" font-size="6.27799" transform="translate(208.406, 415.527)" >M9</text>
<text fill="#ff0000"  xml:space="preserve" font-size="4.70849" transform="translate(227.97, 442.775)" >D</text>
<text fill="#ff0000"  xml:space="preserve" font-size="4.70849" transform="translate(227.97, 416.247)" >S</text>
<text fill="#ff0000"  xml:space="preserve" font-size="4.70849" transform="translate(226.461, 426.175)" >B</text>
<text fill="#ff0000"  xml:space="preserve" font-size="4.70849" transform="translate(203.22, 426.175)" >G</text>
<text fill="#222222"  xml:space="preserve" font-size="6.27799" transform="translate(232.498, 421.154)" >pfet_g5v0d10v5</text>
<text fill="#666600"  xml:space="preserve" font-size="6.27799" transform="translate(233.252, 440.428)" >1 x 1 / 0.5</text>
<text fill="#222222"  xml:space="preserve" font-size="6.27799" transform="translate(204.406, 355.162)" >M10</text>
<text fill="#ff0000"  xml:space="preserve" font-size="4.70849" transform="translate(227.97, 382.41)" >D</text>
<text fill="#ff0000"  xml:space="preserve" font-size="4.70849" transform="translate(227.97, 355.882)" >S</text>
<text fill="#ff0000"  xml:space="preserve" font-size="4.70849" transform="translate(226.461, 365.81)" >B</text>
<text fill="#229900"  xml:space="preserve" font-size="4.70849" transform="translate(208.406, 382.41)" >LVT</text>
<text fill="#ff0000"  xml:space="preserve" font-size="4.70849" transform="translate(204.352, 365.81)" >G</text>
<text fill="#222222"  xml:space="preserve" font-size="6.27799" transform="translate(232.498, 360.788)" >pfet_01v8_lvt</text>
<text fill="#666600"  xml:space="preserve" font-size="6.27799" transform="translate(233.252, 380.062)" >1 x 1 / 0.35</text>
<text fill="#222222"  xml:space="preserve" font-size="6.27799" transform="translate(300.991, 355.162)" >M11</text>
<text fill="#ff0000"  xml:space="preserve" font-size="4.70849" transform="translate(324.555, 382.41)" >D</text>
<text fill="#ff0000"  xml:space="preserve" font-size="4.70849" transform="translate(324.555, 355.882)" >S</text>
<text fill="#ff0000"  xml:space="preserve" font-size="4.70849" transform="translate(323.046, 365.81)" >B</text>
<text fill="#ff0000"  xml:space="preserve" font-size="4.70849" transform="translate(300.936, 365.81)" >G</text>
<text fill="#222222"  xml:space="preserve" font-size="6.27799" transform="translate(329.082, 360.788)" >pfet_01v8</text>
<text fill="#666600"  xml:space="preserve" font-size="6.27799" transform="translate(329.837, 380.062)" >1 x 1 / 0.15</text>
<text fill="#222222"  xml:space="preserve" font-size="6.27799" transform="translate(300.991, 415.527)" >M12</text>
<text fill="#ff0000"  xml:space="preserve" font-size="4.70849" transform="translate(324.555, 442.775)" >D</text>
<text fill="#ff0000"  xml:space="preserve" font-size="4.70849" transform="translate(324.555, 416.247)" >S</text>
<text fill="#ff0000"  xml:space="preserve" font-size="4.70849" transform="translate(323.046, 426.175)" >B</text>
<text fill="#ff0000"  xml:space="preserve" font-size="4.70849" transform="translate(299.804, 426.175)" >G</text>
<text fill="#222222"  xml:space="preserve" font-size="6.27799" transform="translate(329.082, 421.154)" >pfet_g5v0d16v0</text>
<text fill="#666600"  xml:space="preserve" font-size="6.27799" transform="translate(329.837, 440.428)" >1 x 5.0 / 0.66</text>
<text fill="#222222"  xml:space="preserve" font-size="6.27799" transform="translate(397.575, 415.527)" >M13</text>
<text fill="#ff0000"  xml:space="preserve" font-size="4.70849" transform="translate(421.139, 442.775)" >D</text>
<text fill="#ff0000"  xml:space="preserve" font-size="4.70849" transform="translate(421.139, 416.247)" >S</text>
<text fill="#ff0000"  xml:space="preserve" font-size="4.70849" transform="translate(419.63, 426.175)" >B</text>
<text fill="#ff0000"  xml:space="preserve" font-size="4.70849" transform="translate(396.389, 426.175)" >G</text>
<text fill="#222222"  xml:space="preserve" font-size="6.27799" transform="translate(425.667, 421.154)" >pfet_20v0</text>
<text fill="#666600"  xml:space="preserve" font-size="6.27799" transform="translate(426.421, 440.428)" >1 x 30 / 1</text>
<text fill="#ff0000"  xml:space="preserve" font-size="4.70849" transform="translate(277.772, 288.844)" >c0</text>
<text fill="#ff0000"  xml:space="preserve" font-size="4.70849" transform="translate(277.772, 316.763)" >c1</text>
<text fill="#222222"  xml:space="preserve" font-size="6.27799" transform="translate(286.826, 289.514)" >C1</text>
<text fill="#222222"  xml:space="preserve" font-size="6.27799" transform="translate(286.826, 307.624)" >1 / 1</text>
<text fill="#222222"  xml:space="preserve" font-size="6.27799" transform="translate(286.826, 316.679)" >MF=1</text>
<text fill="#222222"  xml:space="preserve" font-size="6.27799" transform="translate(286.826, 298.569)" >cap_mim_m3_1</text>
<text fill="#ff0000"  xml:space="preserve" font-size="4.70849" transform="translate(374.356, 288.844)" >c0</text>
<text fill="#ff0000"  xml:space="preserve" font-size="4.70849" transform="translate(374.356, 316.763)" >c1</text>
<text fill="#222222"  xml:space="preserve" font-size="6.27799" transform="translate(383.411, 289.514)" >C2</text>
<text fill="#222222"  xml:space="preserve" font-size="6.27799" transform="translate(383.411, 307.624)" >1 / 1</text>
<text fill="#222222"  xml:space="preserve" font-size="6.27799" transform="translate(383.411, 316.679)" >MF=1</text>
<text fill="#222222"  xml:space="preserve" font-size="6.27799" transform="translate(383.411, 298.569)" >cap_mim_m3_2</text>
<text fill="#ff0000"  xml:space="preserve" font-size="4.70849" transform="translate(277.772, 204.332)" >c0</text>
<text fill="#ff0000"  xml:space="preserve" font-size="4.70849" transform="translate(277.772, 232.251)" >c1</text>
<text fill="#222222"  xml:space="preserve" font-size="6.27799" transform="translate(286.826, 205.003)" >C3</text>
<text fill="#222222"  xml:space="preserve" font-size="6.27799" transform="translate(286.826, 223.113)" >0.5 / 0.5 * 1</text>
<text fill="#222222"  xml:space="preserve" font-size="6.27799" transform="translate(286.826, 214.058)" >cap_var_lvt</text>
<text fill="#222222"  xml:space="preserve" font-size="4.70849" transform="translate(268.717, 226.969)" >n+</text>
<text fill="#ff0000"  xml:space="preserve" font-size="4.70849" transform="translate(253.626, 226.215)" >b</text>
<text fill="#ff0000"  xml:space="preserve" font-size="4.70849" transform="translate(374.356, 204.332)" >c0</text>
<text fill="#ff0000"  xml:space="preserve" font-size="4.70849" transform="translate(374.356, 232.251)" >c1</text>
<text fill="#222222"  xml:space="preserve" font-size="6.27799" transform="translate(383.411, 205.003)" >C4</text>
<text fill="#222222"  xml:space="preserve" font-size="6.27799" transform="translate(383.411, 223.113)" >0.5 / 0.5 * 1</text>
<text fill="#222222"  xml:space="preserve" font-size="6.27799" transform="translate(383.411, 214.058)" >cap_var_hvt</text>
<text fill="#222222"  xml:space="preserve" font-size="4.70849" transform="translate(365.301, 226.969)" >n+</text>
<text fill="#ff0000"  xml:space="preserve" font-size="4.70849" transform="translate(350.21, 226.215)" >b</text>
<text fill="#ff0000"  xml:space="preserve" font-size="4.70849" transform="translate(307.954, 131.894)" >c0</text>
<text fill="#ff0000"  xml:space="preserve" font-size="4.70849" transform="translate(307.954, 159.813)" >c1</text>
<text fill="#222222"  xml:space="preserve" font-size="6.27799" transform="translate(317.009, 132.565)" >C5</text>
<text fill="#222222"  xml:space="preserve" font-size="6.27799" transform="translate(317.009, 159.729)" >mult=1</text>
<text fill="#222222"  xml:space="preserve" font-size="3.139" transform="translate(307.954, 138.769)" >cap_vpp_11p5x11p7_l1m1m2m3m4_shieldm5</text>
<text fill="#ff0000"  xml:space="preserve" font-size="4.70849" transform="translate(295.881, 137.931)" >top</text>
<text fill="#ff0000"  xml:space="preserve" font-size="4.70849" transform="translate(295.881, 153.022)" >sub</text>
<text fill="#222222"  xml:space="preserve" font-size="6.27799" transform="translate(494.16, 548.331)" >M14</text>
<text fill="#ff0000"  xml:space="preserve" font-size="4.70849" transform="translate(517.724, 575.579)" >S</text>
<text fill="#ff0000"  xml:space="preserve" font-size="4.70849" transform="translate(517.724, 549.05)" >D</text>
<text fill="#ff0000"  xml:space="preserve" font-size="4.70849" transform="translate(516.215, 558.979)" >B</text>
<text fill="#ff0000"  xml:space="preserve" font-size="4.70849" transform="translate(494.105, 558.979)" >G</text>
<text fill="#222222"  xml:space="preserve" font-size="6.27799" transform="translate(522.251, 553.957)" >nfet_20v0_iso</text>
<text fill="#666600"  xml:space="preserve" font-size="6.27799" transform="translate(523.006, 573.231)" >1 x 20.0 / 0.5</text>
<text fill="#ff0000"  xml:space="preserve" font-size="4.70849" transform="translate(500.369, 577.088)" >sub</text>
<text fill="#222222"  xml:space="preserve" font-size="6.27799" transform="translate(590.744, 548.331)" >M15</text>
<text fill="#ff0000"  xml:space="preserve" font-size="4.70849" transform="translate(614.308, 575.579)" >S</text>
<text fill="#ff0000"  xml:space="preserve" font-size="4.70849" transform="translate(614.308, 549.05)" >D</text>
<text fill="#ff0000"  xml:space="preserve" font-size="4.70849" transform="translate(612.799, 558.979)" >B</text>
<text fill="#ff0000"  xml:space="preserve" font-size="4.70849" transform="translate(590.689, 558.979)" >G</text>
<text fill="#222222"  xml:space="preserve" font-size="6.27799" transform="translate(618.836, 553.957)" >nfet_20v0_nvt</text>
<text fill="#666600"  xml:space="preserve" font-size="6.27799" transform="translate(619.59, 573.231)" >1 x 20.0 / 0.5</text>
<text fill="#ff0000"  xml:space="preserve" font-size="4.70849" transform="translate(596.953, 577.088)" >sub</text>
<text fill="#222222"  xml:space="preserve" font-size="6.27799" transform="translate(675.256, 548.331)" >M16</text>
<text fill="#ff0000"  xml:space="preserve" font-size="4.70849" transform="translate(698.82, 575.579)" >S</text>
<text fill="#ff0000"  xml:space="preserve" font-size="4.70849" transform="translate(698.82, 549.05)" >D</text>
<text fill="#ff0000"  xml:space="preserve" font-size="4.70849" transform="translate(697.311, 558.979)" >B</text>
<text fill="#ff0000"  xml:space="preserve" font-size="4.70849" transform="translate(675.201, 558.979)" >G</text>
<text fill="#222222"  xml:space="preserve" font-size="6.27799" transform="translate(703.347, 553.957)" >nfet_20v0_zvt</text>
<text fill="#666600"  xml:space="preserve" font-size="6.27799" transform="translate(704.102, 573.231)" >1 x 20.0 / 0.5</text>
<text fill="#222222"  xml:space="preserve" font-size="6.27799" transform="translate(910.68, 494.002)" >M17</text>
<text fill="#ff0000"  xml:space="preserve" font-size="4.70849" transform="translate(934.244, 521.25)" >S</text>
<text fill="#ff0000"  xml:space="preserve" font-size="4.70849" transform="translate(934.244, 494.722)" >D</text>
<text fill="#ff0000"  xml:space="preserve" font-size="4.70849" transform="translate(910.626, 504.65)" >G</text>
<text fill="#222222"  xml:space="preserve" font-size="6.27799" transform="translate(938.772, 499.629)" >nfet_01v8_lvt</text>
<text fill="#666600"  xml:space="preserve" font-size="6.27799" transform="translate(939.526, 518.902)" >1 x 1 / 0.15</text>
<text fill="#229900"  xml:space="preserve" font-size="4.70849" transform="translate(914.68, 521.25)" >LVT</text>
<text fill="#222222"  xml:space="preserve" font-size="6.27799" transform="translate(1007.26, 494.002)" >M18</text>
<text fill="#ff0000"  xml:space="preserve" font-size="4.70849" transform="translate(1030.83, 521.25)" >S</text>
<text fill="#ff0000"  xml:space="preserve" font-size="4.70849" transform="translate(1030.83, 494.722)" >D</text>
<text fill="#ff0000"  xml:space="preserve" font-size="4.70849" transform="translate(1007.21, 504.65)" >G</text>
<text fill="#222222"  xml:space="preserve" font-size="6.27799" transform="translate(1035.36, 499.629)" >nfet_01v8</text>
<text fill="#666600"  xml:space="preserve" font-size="6.27799" transform="translate(1036.11, 518.902)" >1 x 1 / 0.15</text>
<text fill="#229900"  xml:space="preserve" font-size="6.27799" transform="translate(1107.85, 522.675)" >3V</text>
<text fill="#222222"  xml:space="preserve" font-size="6.27799" transform="translate(1103.85, 494.002)" >M19</text>
<text fill="#ff0000"  xml:space="preserve" font-size="4.70849" transform="translate(1127.41, 521.25)" >S</text>
<text fill="#ff0000"  xml:space="preserve" font-size="4.70849" transform="translate(1127.41, 494.722)" >D</text>
<text fill="#ff0000"  xml:space="preserve" font-size="4.70849" transform="translate(1103.79, 504.65)" >G</text>
<text fill="#222222"  xml:space="preserve" font-size="6.27799" transform="translate(1131.94, 499.629)" >nfet_03v3_nvt</text>
<text fill="#666600"  xml:space="preserve" font-size="6.27799" transform="translate(1132.7, 518.902)" >1 x 1 / 0.5</text>
<text fill="#222222"  xml:space="preserve" font-size="6.27799" transform="translate(1200.43, 494.002)" >M20</text>
<text fill="#ff0000"  xml:space="preserve" font-size="4.70849" transform="translate(1224, 521.25)" >S</text>
<text fill="#ff0000"  xml:space="preserve" font-size="4.70849" transform="translate(1224, 494.722)" >D</text>
<text fill="#ff0000"  xml:space="preserve" font-size="4.70849" transform="translate(1200.38, 504.65)" >G</text>
<text fill="#222222"  xml:space="preserve" font-size="6.27799" transform="translate(1228.53, 499.629)" >nfet_05v0_nvt</text>
<text fill="#666600"  xml:space="preserve" font-size="6.27799" transform="translate(1229.28, 518.902)" >1 x 1 / 0.9</text>
<text fill="#222222"  xml:space="preserve" font-size="6.27799" transform="translate(910.68, 548.331)" >M21</text>
<text fill="#ff0000"  xml:space="preserve" font-size="4.70849" transform="translate(934.244, 575.579)" >S</text>
<text fill="#ff0000"  xml:space="preserve" font-size="4.70849" transform="translate(934.244, 549.05)" >D</text>
<text fill="#ff0000"  xml:space="preserve" font-size="4.70849" transform="translate(910.626, 558.979)" >G</text>
<text fill="#222222"  xml:space="preserve" font-size="6.27799" transform="translate(938.772, 553.957)" >nfet_g5v0d10v5</text>
<text fill="#666600"  xml:space="preserve" font-size="6.27799" transform="translate(939.526, 573.231)" >1 x 1 / 0.5</text>
<text fill="#222222"  xml:space="preserve" font-size="6.27799" transform="translate(1007.26, 548.331)" >M22</text>
<text fill="#ff0000"  xml:space="preserve" font-size="4.70849" transform="translate(1030.83, 575.579)" >S</text>
<text fill="#ff0000"  xml:space="preserve" font-size="4.70849" transform="translate(1030.83, 549.05)" >D</text>
<text fill="#ff0000"  xml:space="preserve" font-size="4.70849" transform="translate(1007.21, 558.979)" >G</text>
<text fill="#222222"  xml:space="preserve" font-size="6.27799" transform="translate(1035.36, 553.957)" >nfet_g5v0d16v0</text>
<text fill="#666600"  xml:space="preserve" font-size="6.27799" transform="translate(1036.11, 573.231)" >1 x 5.0 / 0.7</text>
<text fill="#222222"  xml:space="preserve" font-size="6.27799" transform="translate(1103.85, 548.331)" >M23</text>
<text fill="#ff0000"  xml:space="preserve" font-size="4.70849" transform="translate(1127.41, 575.579)" >S</text>
<text fill="#ff0000"  xml:space="preserve" font-size="4.70849" transform="translate(1127.41, 549.05)" >D</text>
<text fill="#ff0000"  xml:space="preserve" font-size="4.70849" transform="translate(1103.79, 558.979)" >G</text>
<text fill="#222222"  xml:space="preserve" font-size="6.27799" transform="translate(1131.94, 553.957)" >nfet_20v0</text>
<text fill="#666600"  xml:space="preserve" font-size="6.27799" transform="translate(1132.7, 573.231)" >1 x 20.0 / 0.5</text>
<text fill="#222222"  xml:space="preserve" font-size="6.27799" transform="translate(1097.81, 355.162)" >M24</text>
<text fill="#ff0000"  xml:space="preserve" font-size="4.70849" transform="translate(1121.38, 382.41)" >D</text>
<text fill="#ff0000"  xml:space="preserve" font-size="4.70849" transform="translate(1121.38, 355.882)" >S</text>
<text fill="#ff0000"  xml:space="preserve" font-size="4.70849" transform="translate(1097.76, 365.81)" >G</text>
<text fill="#222222"  xml:space="preserve" font-size="6.27799" transform="translate(1125.9, 360.788)" >pfet_01v8_hvt</text>
<text fill="#666600"  xml:space="preserve" font-size="6.27799" transform="translate(1126.66, 380.062)" >1 x 1 / 0.15</text>
<text fill="#229900"  xml:space="preserve" font-size="4.70849" transform="translate(1100.81, 382.41)" >HVT</text>
<text fill="#222222"  xml:space="preserve" font-size="6.27799" transform="translate(904.644, 415.527)" >M25</text>
<text fill="#ff0000"  xml:space="preserve" font-size="4.70849" transform="translate(928.208, 442.775)" >D</text>
<text fill="#ff0000"  xml:space="preserve" font-size="4.70849" transform="translate(928.208, 416.247)" >S</text>
<text fill="#ff0000"  xml:space="preserve" font-size="4.70849" transform="translate(903.457, 426.175)" >G</text>
<text fill="#222222"  xml:space="preserve" font-size="6.27799" transform="translate(932.735, 421.154)" >pfet_g5v0d10v5</text>
<text fill="#666600"  xml:space="preserve" font-size="6.27799" transform="translate(933.49, 440.428)" >1 x 1 / 0.5</text>
<text fill="#222222"  xml:space="preserve" font-size="6.27799" transform="translate(904.644, 355.162)" >M26</text>
<text fill="#ff0000"  xml:space="preserve" font-size="4.70849" transform="translate(928.208, 382.41)" >D</text>
<text fill="#ff0000"  xml:space="preserve" font-size="4.70849" transform="translate(928.208, 355.882)" >S</text>
<text fill="#229900"  xml:space="preserve" font-size="4.70849" transform="translate(908.644, 382.41)" >LVT</text>
<text fill="#ff0000"  xml:space="preserve" font-size="4.70849" transform="translate(904.589, 365.81)" >G</text>
<text fill="#222222"  xml:space="preserve" font-size="6.27799" transform="translate(932.735, 360.788)" >pfet_01v8_lvt</text>
<text fill="#666600"  xml:space="preserve" font-size="6.27799" transform="translate(933.49, 380.062)" >1 x 1 / 0.35</text>
<text fill="#222222"  xml:space="preserve" font-size="6.27799" transform="translate(1001.23, 355.162)" >M27</text>
<text fill="#ff0000"  xml:space="preserve" font-size="4.70849" transform="translate(1024.79, 382.41)" >D</text>
<text fill="#ff0000"  xml:space="preserve" font-size="4.70849" transform="translate(1024.79, 355.882)" >S</text>
<text fill="#ff0000"  xml:space="preserve" font-size="4.70849" transform="translate(1001.17, 365.81)" >G</text>
<text fill="#222222"  xml:space="preserve" font-size="6.27799" transform="translate(1029.32, 360.788)" >pfet_01v8</text>
<text fill="#666600"  xml:space="preserve" font-size="6.27799" transform="translate(1030.07, 380.062)" >1 x 1 / 0.15</text>
<text fill="#222222"  xml:space="preserve" font-size="6.27799" transform="translate(1001.23, 415.527)" >M28</text>
<text fill="#ff0000"  xml:space="preserve" font-size="4.70849" transform="translate(1024.79, 442.775)" >D</text>
<text fill="#ff0000"  xml:space="preserve" font-size="4.70849" transform="translate(1024.79, 416.247)" >S</text>
<text fill="#ff0000"  xml:space="preserve" font-size="4.70849" transform="translate(1000.04, 426.175)" >G</text>
<text fill="#222222"  xml:space="preserve" font-size="6.27799" transform="translate(1029.32, 421.154)" >pfet_g5v0d16v0</text>
<text fill="#666600"  xml:space="preserve" font-size="6.27799" transform="translate(1030.07, 440.428)" >1 x 5.0 / 0.66</text>
<text fill="#222222"  xml:space="preserve" font-size="6.27799" transform="translate(1097.81, 415.527)" >M29</text>
<text fill="#ff0000"  xml:space="preserve" font-size="4.70849" transform="translate(1121.38, 442.775)" >D</text>
<text fill="#ff0000"  xml:space="preserve" font-size="4.70849" transform="translate(1121.38, 416.247)" >S</text>
<text fill="#ff0000"  xml:space="preserve" font-size="4.70849" transform="translate(1096.63, 426.175)" >G</text>
<text fill="#222222"  xml:space="preserve" font-size="6.27799" transform="translate(1125.9, 421.154)" >pfet_20v0</text>
<text fill="#666600"  xml:space="preserve" font-size="6.27799" transform="translate(1126.66, 440.428)" >1 x 30 / 1</text>
<path class="l4" d="M93.6575 331.352L1288.89 331.352"/>
<path class="l4" d="M93.6575 473.21L1288.89 473.21"/>
<path class="l4" d="M93.6575 599.977L1288.89 599.977"/>
<path class="l4" d="M93.6575 832.384L673.164 832.384"/>
<path class="l4" d="M93.6575 956.132L673.164 956.132"/>
<path class="l4" d="M93.6575 180.438L673.164 180.438"/>
<path class="l4" d="M93.6575 258.913L673.164 258.913"/>
<path class="l4" d="M449.813 910.858L449.813 925.95"/>
<path class="l4" d="M449.813 931.986L449.813 947.078"/>
<path class="l4" d="M443.776 925.95L455.849 925.95"/>
<path class="l4" d="M449.813 925.95L443.776 931.986L455.849 931.986L449.813 925.95"/>
<path class="l4" d="M190.242 910.858L190.242 925.95"/>
<path class="l4" d="M190.242 931.986L190.242 947.078"/>
<path class="l4" d="M184.205 925.95L196.279 925.95"/>
<path class="l4" d="M190.242 925.95L184.205 931.986L196.279 931.986L190.242 925.95"/>
<path class="l4" d="M317.009 965.187L317.009 1001.41"/>
<path class="l4" d="M304.936 983.297L317.009 983.297"/>
<path class="l4" d="M323.046 971.224L329.082 965.187"/>
<path class="l4" d="M317.009 989.333L329.082 1001.41"/>
<path class="l4" d="M317.009 977.26L326.064 974.242L320.027 968.205L317.009 977.26"/>
<path class="l4" d="M226.461 645.251L226.461 651.288"/>
<path class="l4" d="M226.461 645.251L230.989 643.742"/>
<path class="l4" d="M221.934 640.724L230.989 643.742"/>
<path class="l4" d="M221.934 640.724L230.989 637.705"/>
<path class="l4" d="M221.934 634.687L230.989 637.705"/>
<path class="l4" d="M221.934 634.687L230.989 631.669"/>
<path class="l4" d="M221.934 628.651L230.989 631.669"/>
<path class="l4" d="M221.934 628.651L230.989 625.632"/>
<path class="l4" d="M221.934 622.614L230.989 625.632"/>
<path class="l4" d="M221.934 622.614L226.461 621.105"/>
<path class="l4" d="M226.461 615.068L226.461 621.105"/>
<path class="l4" d="M323.046 645.251L323.046 651.288"/>
<path class="l4" d="M323.046 645.251L327.573 643.742"/>
<path class="l4" d="M318.518 640.724L327.573 643.742"/>
<path class="l4" d="M318.518 640.724L327.573 637.705"/>
<path class="l4" d="M318.518 634.687L327.573 637.705"/>
<path class="l4" d="M318.518 634.687L327.573 631.669"/>
<path class="l4" d="M318.518 628.651L327.573 631.669"/>
<path class="l4" d="M318.518 628.651L327.573 625.632"/>
<path class="l4" d="M318.518 622.614L327.573 625.632"/>
<path class="l4" d="M318.518 622.614L323.046 621.105"/>
<path class="l4" d="M323.046 615.068L323.046 621.105"/>
<path class="l4" d="M317.764 616.578L317.764 622.614"/>
<path class="l4" d="M317.764 643.742L317.764 649.779"/>
<path class="l4" d="M313.991 646.76L315.5 646.76"/>
<path class="l4" d="M313.991 619.596L313.991 646.76"/>
<path class="l4" d="M313.991 619.596L315.5 619.596"/>
<path class="l4" d="M310.973 633.178L313.991 633.178"/>
<path class="l4" d="M317.764 646.76L323.046 646.76"/>
<path class="l4" d="M317.764 619.596L323.046 619.596"/>
<path class="l4" style="fill:none;" d="M315.5 618.087L315.5 621.105L317.764 619.596L315.5 618.087"/>
<path class="l4" style="fill:none;" d="M315.5 645.251L315.5 648.269L317.764 646.76L315.5 645.251"/>
<path class="l4" d="M419.63 645.251L419.63 651.288"/>
<path class="l4" d="M419.63 645.251L424.158 643.742"/>
<path class="l4" d="M415.103 640.724L424.158 643.742"/>
<path class="l4" d="M415.103 640.724L424.158 637.705"/>
<path class="l4" d="M415.103 634.687L424.158 637.705"/>
<path class="l4" d="M415.103 634.687L424.158 631.669"/>
<path class="l4" d="M415.103 628.651L424.158 631.669"/>
<path class="l4" d="M415.103 628.651L424.158 625.632"/>
<path class="l4" d="M415.103 622.614L424.158 625.632"/>
<path class="l4" d="M415.103 622.614L419.63 621.105"/>
<path class="l4" d="M419.63 615.068L419.63 621.105"/>
<path class="l4" d="M412.084 616.578L412.084 622.614"/>
<path class="l4" d="M412.084 643.742L412.084 649.779"/>
<path class="l4" d="M410.575 646.76L412.084 646.76"/>
<path class="l4" d="M410.575 619.596L410.575 646.76"/>
<path class="l4" d="M410.575 619.596L412.084 619.596"/>
<path class="l4" d="M407.557 633.178L410.575 633.178"/>
<path class="l4" d="M414.348 646.76L419.63 646.76"/>
<path class="l4" d="M414.348 619.596L419.63 619.596"/>
<path class="l4" style="fill:none;" d="M414.348 618.087L414.348 621.105L412.084 619.596L414.348 618.087"/>
<path class="l4" style="fill:none;" d="M414.348 645.251L414.348 648.269L412.084 646.76L414.348 645.251"/>
<path class="l4" d="M516.215 645.251L516.215 651.288"/>
<path class="l4" d="M516.215 645.251L520.742 643.742"/>
<path class="l4" d="M511.687 640.724L520.742 643.742"/>
<path class="l4" d="M511.687 640.724L520.742 637.705"/>
<path class="l4" d="M511.687 634.687L520.742 637.705"/>
<path class="l4" d="M511.687 634.687L520.742 631.669"/>
<path class="l4" d="M511.687 628.651L520.742 631.669"/>
<path class="l4" d="M511.687 628.651L520.742 625.632"/>
<path class="l4" d="M511.687 622.614L520.742 625.632"/>
<path class="l4" d="M511.687 622.614L516.215 621.105"/>
<path class="l4" d="M516.215 615.068L516.215 621.105"/>
<path class="l4" d="M226.461 723.726L226.461 729.763"/>
<path class="l4" d="M226.461 723.726L230.989 722.217"/>
<path class="l4" d="M221.934 719.199L230.989 722.217"/>
<path class="l4" d="M221.934 719.199L230.989 716.18"/>
<path class="l4" d="M221.934 713.162L230.989 716.18"/>
<path class="l4" d="M221.934 713.162L230.989 710.144"/>
<path class="l4" d="M221.934 707.126L230.989 710.144"/>
<path class="l4" d="M221.934 707.126L230.989 704.107"/>
<path class="l4" d="M221.934 701.089L230.989 704.107"/>
<path class="l4" d="M221.934 701.089L226.461 699.58"/>
<path class="l4" d="M226.461 693.543L226.461 699.58"/>
<path class="l4" d="M323.046 723.726L323.046 729.763"/>
<path class="l4" d="M323.046 723.726L327.573 722.217"/>
<path class="l4" d="M318.518 719.199L327.573 722.217"/>
<path class="l4" d="M318.518 719.199L327.573 716.18"/>
<path class="l4" d="M318.518 713.162L327.573 716.18"/>
<path class="l4" d="M318.518 713.162L327.573 710.144"/>
<path class="l4" d="M318.518 707.126L327.573 710.144"/>
<path class="l4" d="M318.518 707.126L327.573 704.107"/>
<path class="l4" d="M318.518 701.089L327.573 704.107"/>
<path class="l4" d="M318.518 701.089L323.046 699.58"/>
<path class="l4" d="M323.046 693.543L323.046 699.58"/>
<path class="l4" d="M419.63 723.726L419.63 729.763"/>
<path class="l4" d="M419.63 723.726L424.158 722.217"/>
<path class="l4" d="M415.103 719.199L424.158 722.217"/>
<path class="l4" d="M415.103 719.199L424.158 716.18"/>
<path class="l4" d="M415.103 713.162L424.158 716.18"/>
<path class="l4" d="M415.103 713.162L424.158 710.144"/>
<path class="l4" d="M415.103 707.126L424.158 710.144"/>
<path class="l4" d="M415.103 707.126L424.158 704.107"/>
<path class="l4" d="M415.103 701.089L424.158 704.107"/>
<path class="l4" d="M415.103 701.089L419.63 699.58"/>
<path class="l4" d="M419.63 693.543L419.63 699.58"/>
<path class="l4" d="M516.215 723.726L516.215 729.763"/>
<path class="l4" d="M516.215 723.726L520.742 722.217"/>
<path class="l4" d="M511.687 719.199L520.742 722.217"/>
<path class="l4" d="M511.687 719.199L520.742 716.18"/>
<path class="l4" d="M511.687 713.162L520.742 716.18"/>
<path class="l4" d="M511.687 713.162L520.742 710.144"/>
<path class="l4" d="M511.687 707.126L520.742 710.144"/>
<path class="l4" d="M511.687 707.126L520.742 704.107"/>
<path class="l4" d="M511.687 701.089L520.742 704.107"/>
<path class="l4" d="M511.687 701.089L516.215 699.58"/>
<path class="l4" d="M516.215 693.543L516.215 699.58"/>
<path class="l4" d="M226.461 802.201L226.461 808.237"/>
<path class="l4" d="M226.461 802.201L230.989 800.692"/>
<path class="l4" d="M221.934 797.674L230.989 800.692"/>
<path class="l4" d="M221.934 797.674L230.989 794.655"/>
<path class="l4" d="M221.934 791.637L230.989 794.655"/>
<path class="l4" d="M221.934 791.637L230.989 788.619"/>
<path class="l4" d="M221.934 785.6L230.989 788.619"/>
<path class="l4" d="M221.934 785.6L230.989 782.582"/>
<path class="l4" d="M221.934 779.564L230.989 782.582"/>
<path class="l4" d="M221.934 779.564L226.461 778.055"/>
<path class="l4" d="M226.461 772.018L226.461 778.055"/>
<path class="l4" d="M323.046 802.201L323.046 808.237"/>
<path class="l4" d="M323.046 802.201L327.573 800.692"/>
<path class="l4" d="M318.518 797.674L327.573 800.692"/>
<path class="l4" d="M318.518 797.674L327.573 794.655"/>
<path class="l4" d="M318.518 791.637L327.573 794.655"/>
<path class="l4" d="M318.518 791.637L327.573 788.619"/>
<path class="l4" d="M318.518 785.6L327.573 788.619"/>
<path class="l4" d="M318.518 785.6L327.573 782.582"/>
<path class="l4" d="M318.518 779.564L327.573 782.582"/>
<path class="l4" d="M318.518 779.564L323.046 778.055"/>
<path class="l4" d="M323.046 772.018L323.046 778.055"/>
<path class="l4" d="M419.63 802.201L419.63 808.237"/>
<path class="l4" d="M419.63 802.201L424.158 800.692"/>
<path class="l4" d="M415.103 797.674L424.158 800.692"/>
<path class="l4" d="M415.103 797.674L424.158 794.655"/>
<path class="l4" d="M415.103 791.637L424.158 794.655"/>
<path class="l4" d="M415.103 791.637L424.158 788.619"/>
<path class="l4" d="M415.103 785.6L424.158 788.619"/>
<path class="l4" d="M415.103 785.6L424.158 782.582"/>
<path class="l4" d="M415.103 779.564L424.158 782.582"/>
<path class="l4" d="M415.103 779.564L419.63 778.055"/>
<path class="l4" d="M419.63 772.018L419.63 778.055"/>
<path class="l4" d="M516.215 802.201L516.215 808.237"/>
<path class="l4" d="M516.215 802.201L520.742 800.692"/>
<path class="l4" d="M511.687 797.674L520.742 800.692"/>
<path class="l4" d="M511.687 797.674L520.742 794.655"/>
<path class="l4" d="M511.687 791.637L520.742 794.655"/>
<path class="l4" d="M511.687 791.637L520.742 788.619"/>
<path class="l4" d="M511.687 785.6L520.742 788.619"/>
<path class="l4" d="M511.687 785.6L520.742 782.582"/>
<path class="l4" d="M511.687 779.564L520.742 782.582"/>
<path class="l4" d="M511.687 779.564L516.215 778.055"/>
<path class="l4" d="M516.215 772.018L516.215 778.055"/>
<path class="l4" d="M218.916 492.829L218.916 519.993"/>
<path class="l4" d="M202.315 506.411L215.897 506.411"/>
<path class="l4" d="M226.461 488.301L226.461 495.847"/>
<path class="l4" d="M226.461 516.975L226.461 524.521"/>
<path class="l4" d="M215.897 497.356L215.897 515.466"/>
<path class="l4" d="M218.916 495.847L226.461 495.847"/>
<path class="l4" d="M218.916 516.975L223.443 516.975"/>
<path class="l4" d="M223.443 515.466L226.461 516.975L223.443 518.484L223.443 515.466"/>
<path class="l4" d="M315.5 492.829L315.5 519.993"/>
<path class="l4" d="M298.9 506.411L312.482 506.411"/>
<path class="l4" d="M323.046 488.301L323.046 495.847"/>
<path class="l4" d="M323.046 516.975L323.046 524.521"/>
<path class="l4" d="M312.482 497.356L312.482 515.466"/>
<path class="l4" d="M315.5 495.847L323.046 495.847"/>
<path class="l4" d="M315.5 516.975L320.027 516.975"/>
<path class="l4" d="M320.027 515.466L323.046 516.975L320.027 518.484L320.027 515.466"/>
<path class="l4" d="M419.63 488.301L419.63 495.847"/>
<path class="l4" d="M419.63 516.975L419.63 524.521"/>
<path class="l4" d="M412.084 495.847L419.63 495.847"/>
<path class="l4" d="M412.084 516.975L416.612 516.975"/>
<path class="l4" d="M395.484 506.411L406.048 506.411"/>
<path class="l4" d="M412.084 492.829L412.084 498.865"/>
<path class="l4" d="M412.084 513.957L412.084 519.993"/>
<path class="l4" d="M412.084 503.393L412.084 509.429"/>
<path class="l4" d="M416.612 515.466L419.63 516.975L416.612 518.484L416.612 515.466"/>
<path class="l4" style="fill:none;" d="M406.048 515.466L406.048 497.356L409.066 497.356L409.066 515.466L406.048 515.466"/>
<path class="l4" d="M516.215 488.301L516.215 495.847"/>
<path class="l4" d="M516.215 516.975L516.215 524.521"/>
<path class="l4" d="M508.669 495.847L516.215 495.847"/>
<path class="l4" d="M508.669 516.975L513.196 516.975"/>
<path class="l4" d="M492.068 506.411L502.632 506.411"/>
<path class="l4" d="M508.669 492.829L508.669 498.865"/>
<path class="l4" d="M508.669 513.957L508.669 519.993"/>
<path class="l4" d="M508.669 503.393L508.669 509.429"/>
<path class="l4" d="M513.196 515.466L516.215 516.975L513.196 518.484L513.196 515.466"/>
<path class="l4" style="fill:none;" d="M502.632 515.466L502.632 497.356L505.651 497.356L505.651 515.466L502.632 515.466"/>
<path class="l4" d="M226.461 542.63L226.461 550.176"/>
<path class="l4" d="M226.461 571.304L226.461 578.849"/>
<path class="l4" d="M218.916 550.176L226.461 550.176"/>
<path class="l4" d="M218.916 571.304L223.443 571.304"/>
<path class="l4" d="M218.916 547.158L218.916 574.322"/>
<path class="l4" d="M202.315 560.74L212.879 560.74"/>
<path class="l4" d="M223.443 569.795L226.461 571.304L223.443 572.813L223.443 569.795"/>
<path class="l4" style="fill:none;" d="M212.879 569.795L212.879 551.685L215.897 551.685L215.897 569.795L212.879 569.795"/>
<path class="l4" d="M323.046 542.63L323.046 550.176"/>
<path class="l4" d="M323.046 571.304L323.046 578.849"/>
<path class="l4" d="M315.5 550.176L323.046 550.176"/>
<path class="l4" d="M315.5 571.304L320.027 571.304"/>
<path class="l4" d="M315.5 547.158L315.5 574.322"/>
<path class="l4" d="M312.482 556.212L315.5 556.212"/>
<path class="l4" d="M298.9 560.74L309.463 560.74"/>
<path class="l4" d="M312.482 551.685L315.5 551.685"/>
<path class="l4" d="M320.027 569.795L323.046 571.304L320.027 572.813L320.027 569.795"/>
<path class="l4" style="fill:none;" d="M309.463 569.795L309.463 551.685L312.482 551.685L312.482 569.795L309.463 569.795"/>
<path class="l4" d="M419.63 542.63L419.63 550.176"/>
<path class="l4" d="M419.63 571.304L419.63 578.849"/>
<path class="l4" d="M412.839 550.176L419.63 550.176"/>
<path class="l4" d="M412.839 571.304L416.612 571.304"/>
<path class="l4" d="M412.839 547.158L412.839 574.322"/>
<path class="l4" d="M409.066 551.685L412.839 551.685"/>
<path class="l4" d="M409.066 557.721L412.839 557.721"/>
<path class="l4" d="M409.066 555.458L412.839 555.458"/>
<path class="l4" d="M395.484 560.74L406.048 560.74"/>
<path class="l4" d="M409.066 554.703L409.821 555.458"/>
<path class="l4" d="M412.084 555.458L412.839 554.703"/>
<path class="l4" d="M412.084 551.685L412.839 552.439"/>
<path class="l4" d="M409.066 552.439L409.821 551.685"/>
<path class="l4" d="M412.084 552.439L412.273 552.251"/>
<path class="l4" d="M409.632 554.892L409.821 554.703"/>
<path class="l4" d="M409.632 552.251L409.821 552.439"/>
<path class="l4" d="M412.084 554.703L412.273 554.892"/>
<path class="l4" d="M416.612 569.795L419.63 571.304L416.612 572.813L416.612 569.795"/>
<path class="l4" style="fill:none;" d="M406.048 569.795L406.048 551.685L409.066 551.685L409.066 569.795L406.048 569.795"/>
<path class="l4" d="M410.198 552.817L411.707 552.817L411.707 554.326L410.198 554.326L410.198 552.817z"/>
<path class="l4" d="M412.084 353.989L412.084 381.153"/>
<path class="l4" d="M419.63 349.461L419.63 357.007"/>
<path class="l4" d="M419.63 378.135L419.63 385.68"/>
<path class="l4" d="M409.066 358.516L409.066 376.626"/>
<path class="l4" d="M412.084 378.135L419.63 378.135"/>
<path class="l4" d="M415.103 357.007L419.63 357.007"/>
<path class="l4" d="M395.484 367.571L403.03 367.571"/>
<path class="l4" d="M415.103 355.498L412.084 357.007L415.103 358.516L415.103 355.498"/>
<circle class="l4" cx="406.048" cy="367.571" r="3.01826" style="fill:none;"/>
<path class="l4" d="M226.461 409.826L226.461 417.372"/>
<path class="l4" d="M226.461 438.5L226.461 446.046"/>
<path class="l4" d="M218.916 438.5L226.461 438.5"/>
<path class="l4" d="M221.934 417.372L226.461 417.372"/>
<path class="l4" d="M202.315 427.936L206.842 427.936"/>
<path class="l4" d="M218.916 414.354L218.916 441.518"/>
<path class="l4" d="M221.934 415.863L218.916 417.372L221.934 418.881L221.934 415.863"/>
<path class="l4" style="fill:none;" d="M212.879 436.991L212.879 418.881L215.897 418.881L215.897 436.991L212.879 436.991"/>
<circle class="l4" cx="209.861" cy="427.936" r="3.01826" style="fill:none;"/>
<path class="l4" d="M218.916 353.989L218.916 381.153"/>
<path class="l4" d="M226.461 349.461L226.461 357.007"/>
<path class="l4" d="M226.461 378.135L226.461 385.68"/>
<path class="l4" d="M215.897 358.516L215.897 376.626"/>
<path class="l4" d="M218.916 378.135L226.461 378.135"/>
<path class="l4" d="M221.934 357.007L226.461 357.007"/>
<path class="l4" d="M202.315 367.571L209.861 367.571"/>
<path class="l4" d="M221.934 355.498L218.916 357.007L221.934 358.516L221.934 355.498"/>
<circle class="l4" cx="212.879" cy="367.571" r="3.01826" style="fill:none;"/>
<path class="l4" d="M315.5 353.989L315.5 381.153"/>
<path class="l4" d="M323.046 349.461L323.046 357.007"/>
<path class="l4" d="M323.046 378.135L323.046 385.68"/>
<path class="l4" d="M312.482 358.516L312.482 376.626"/>
<path class="l4" d="M315.5 378.135L323.046 378.135"/>
<path class="l4" d="M318.518 357.007L323.046 357.007"/>
<path class="l4" d="M298.9 367.571L306.445 367.571"/>
<path class="l4" d="M318.518 355.498L315.5 357.007L318.518 358.516L318.518 355.498"/>
<circle class="l4" cx="309.463" cy="367.571" r="3.01826" style="fill:none;"/>
<path class="l4" d="M323.046 409.826L323.046 417.372"/>
<path class="l4" d="M323.046 438.5L323.046 446.046"/>
<path class="l4" d="M315.5 438.5L323.046 438.5"/>
<path class="l4" d="M318.518 417.372L323.046 417.372"/>
<path class="l4" d="M315.5 414.354L315.5 441.518"/>
<path class="l4" d="M312.482 432.463L315.5 432.463"/>
<path class="l4" d="M312.482 436.991L315.5 436.991"/>
<path class="l4" d="M298.9 427.936L303.427 427.936"/>
<path class="l4" d="M318.518 415.863L315.5 417.372L318.518 418.881L318.518 415.863"/>
<path class="l4" style="fill:none;" d="M309.463 436.991L309.463 418.881L312.482 418.881L312.482 436.991L309.463 436.991"/>
<circle class="l4" cx="306.445" cy="427.936" r="3.01826" style="fill:none;"/>
<path class="l4" d="M419.63 409.826L419.63 417.372"/>
<path class="l4" d="M419.63 438.5L419.63 446.046"/>
<path class="l4" d="M412.839 438.5L419.63 438.5"/>
<path class="l4" d="M415.857 417.372L419.63 417.372"/>
<path class="l4" d="M412.839 414.354L412.839 441.518"/>
<path class="l4" d="M395.484 427.936L400.011 427.936"/>
<path class="l4" d="M409.066 433.218L412.839 433.218"/>
<path class="l4" d="M409.066 436.991L412.839 436.991"/>
<path class="l4" d="M409.066 436.236L409.821 436.991"/>
<path class="l4" d="M412.084 436.991L412.839 436.236"/>
<path class="l4" d="M412.084 433.218L412.839 433.973"/>
<path class="l4" d="M409.066 433.973L409.821 433.218"/>
<path class="l4" d="M412.084 433.973L412.273 433.784"/>
<path class="l4" d="M409.632 436.425L409.821 436.236"/>
<path class="l4" d="M409.632 433.784L409.821 433.973"/>
<path class="l4" d="M412.084 436.236L412.273 436.425"/>
<path class="l4" d="M409.066 430.954L412.839 430.954"/>
<path class="l4" d="M415.857 415.863L412.839 417.372L415.857 418.881L415.857 415.863"/>
<path class="l4" style="fill:none;" d="M406.048 436.991L406.048 418.881L409.066 418.881L409.066 436.991L406.048 436.991"/>
<circle class="l4" cx="403.03" cy="427.936" r="3.01826" style="fill:none;"/>
<path class="l4" d="M410.198 434.35L411.707 434.35L411.707 435.859L410.198 435.859L410.198 434.35z"/>
<path class="l4" d="M274.753 302.678L274.753 319.279"/>
<path class="l4" d="M274.753 283.059L274.753 298.151"/>
<path class="l4" d="M268.717 298.151L280.79 298.151"/>
<path class="l4" style="fill:none;" d="M280.79 304.187 A12.8276 12.8276 0 0 0 268.717 304.187"/>
<path class="l4" d="M371.338 302.678L371.338 319.279"/>
<path class="l4" d="M371.338 283.059L371.338 298.151"/>
<path class="l4" d="M365.301 298.151L377.374 298.151"/>
<path class="l4" style="fill:none;" d="M377.374 304.187 A12.8276 12.8276 0 0 0 365.301 304.187"/>
<path class="l4" d="M274.753 218.167L274.753 234.767"/>
<path class="l4" d="M274.753 198.548L274.753 213.639"/>
<path class="l4" d="M268.717 213.639L280.79 213.639"/>
<path class="l4" d="M265.699 228.731L274.753 228.731"/>
<path class="l4" d="M250.607 228.731L259.662 228.731"/>
<path class="l4" d="M265.699 222.694L265.699 234.767"/>
<path class="l4" d="M265.699 228.731L259.662 222.694L259.662 234.767L265.699 228.731"/>
<path class="l4" style="fill:none;" d="M280.79 219.676 A12.8276 12.8276 0 0 0 268.717 219.676"/>
<path class="l4" d="M371.338 218.167L371.338 234.767"/>
<path class="l4" d="M371.338 198.548L371.338 213.639"/>
<path class="l4" d="M365.301 213.639L377.374 213.639"/>
<path class="l4" d="M362.283 228.731L371.338 228.731"/>
<path class="l4" d="M347.192 228.731L356.247 228.731"/>
<path class="l4" d="M362.283 222.694L362.283 234.767"/>
<path class="l4" d="M362.283 228.731L356.247 222.694L356.247 234.767L362.283 228.731"/>
<path class="l4" style="fill:none;" d="M377.374 219.676 A12.8276 12.8276 0 0 0 365.301 219.676"/>
<path class="l4" d="M304.936 145.728L304.936 162.329"/>
<path class="l4" d="M304.936 126.11L304.936 141.201"/>
<path class="l4" d="M298.9 141.201L310.973 141.201"/>
<path class="l4" style="fill:none;" d="M310.973 147.237 A12.8276 12.8276 0 0 0 298.9 147.237"/>
<path class="l4" d="M516.215 542.63L516.215 550.176"/>
<path class="l4" d="M516.215 571.304L516.215 578.849"/>
<path class="l4" d="M509.424 550.176L516.215 550.176"/>
<path class="l4" d="M509.424 571.304L513.196 571.304"/>
<path class="l4" d="M509.424 547.158L509.424 574.322"/>
<path class="l4" d="M505.651 551.685L509.424 551.685"/>
<path class="l4" d="M505.651 557.721L509.424 557.721"/>
<path class="l4" d="M505.651 555.458L509.424 555.458"/>
<path class="l4" d="M492.068 560.74L502.632 560.74"/>
<path class="l4" d="M505.651 554.703L506.405 555.458"/>
<path class="l4" d="M508.669 555.458L509.424 554.703"/>
<path class="l4" d="M508.669 551.685L509.424 552.439"/>
<path class="l4" d="M505.651 552.439L506.405 551.685"/>
<path class="l4" d="M508.669 552.439L508.858 552.251"/>
<path class="l4" d="M506.217 554.892L506.405 554.703"/>
<path class="l4" d="M506.217 552.251L506.405 552.439"/>
<path class="l4" d="M508.669 554.703L508.858 554.892"/>
<path class="l4" d="M513.196 569.795L516.215 571.304L513.196 572.813L513.196 569.795"/>
<path class="l4" style="fill:none;" d="M502.632 569.795L502.632 551.685L505.651 551.685L505.651 569.795L502.632 569.795"/>
<path class="l4" d="M506.783 552.817L508.292 552.817L508.292 554.326L506.783 554.326L506.783 552.817z"/>
<path class="l4" d="M612.799 542.63L612.799 550.176"/>
<path class="l4" d="M612.799 571.304L612.799 578.849"/>
<path class="l4" d="M606.008 550.176L612.799 550.176"/>
<path class="l4" d="M606.008 571.304L609.781 571.304"/>
<path class="l4" d="M606.008 547.158L606.008 574.322"/>
<path class="l4" d="M602.235 551.685L606.008 551.685"/>
<path class="l4" d="M602.235 557.721L606.008 557.721"/>
<path class="l4" d="M602.235 555.458L606.008 555.458"/>
<path class="l4" d="M588.653 560.74L599.217 560.74"/>
<path class="l4" d="M602.235 554.703L602.99 555.458"/>
<path class="l4" d="M605.253 555.458L606.008 554.703"/>
<path class="l4" d="M605.253 551.685L606.008 552.439"/>
<path class="l4" d="M602.235 552.439L602.99 551.685"/>
<path class="l4" d="M605.253 552.439L605.442 552.251"/>
<path class="l4" d="M602.801 554.892L602.99 554.703"/>
<path class="l4" d="M602.801 552.251L602.99 552.439"/>
<path class="l4" d="M605.253 554.703L605.442 554.892"/>
<path class="l4" d="M609.781 569.795L612.799 571.304L609.781 572.813L609.781 569.795"/>
<path class="l4" style="fill:none;" d="M599.217 569.795L599.217 551.685L602.235 551.685L602.235 569.795L599.217 569.795"/>
<path class="l4" d="M603.367 552.817L604.876 552.817L604.876 554.326L603.367 554.326L603.367 552.817z"/>
<path class="l4" d="M697.311 542.63L697.311 550.176"/>
<path class="l4" d="M697.311 571.304L697.311 578.849"/>
<path class="l4" d="M690.519 550.176L697.311 550.176"/>
<path class="l4" d="M690.519 571.304L694.292 571.304"/>
<path class="l4" d="M690.519 547.158L690.519 574.322"/>
<path class="l4" d="M686.747 551.685L690.519 551.685"/>
<path class="l4" d="M686.747 557.721L690.519 557.721"/>
<path class="l4" d="M686.747 555.458L690.519 555.458"/>
<path class="l4" d="M673.164 560.74L683.728 560.74"/>
<path class="l4" d="M686.747 554.703L687.501 555.458"/>
<path class="l4" d="M689.765 555.458L690.519 554.703"/>
<path class="l4" d="M689.765 551.685L690.519 552.439"/>
<path class="l4" d="M686.747 552.439L687.501 551.685"/>
<path class="l4" d="M689.765 552.439L689.953 552.251"/>
<path class="l4" d="M687.312 554.892L687.501 554.703"/>
<path class="l4" d="M687.312 552.251L687.501 552.439"/>
<path class="l4" d="M689.765 554.703L689.953 554.892"/>
<path class="l4" d="M694.292 569.795L697.311 571.304L694.292 572.813L694.292 569.795"/>
<path class="l4" style="fill:none;" d="M683.728 569.795L683.728 551.685L686.747 551.685L686.747 569.795L683.728 569.795"/>
<path class="l4" d="M687.878 552.817L689.388 552.817L689.388 554.326L687.878 554.326L687.878 552.817z"/>
<path class="l4" d="M925.189 492.829L925.189 519.993"/>
<path class="l4" d="M908.589 506.411L922.171 506.411"/>
<path class="l4" d="M932.735 488.301L932.735 495.847"/>
<path class="l4" d="M932.735 516.975L932.735 524.521"/>
<path class="l4" d="M922.171 497.356L922.171 515.466"/>
<path class="l4" d="M925.189 495.847L932.735 495.847"/>
<path class="l4" d="M925.189 516.975L929.717 516.975"/>
<path class="l4" d="M929.717 515.466L932.735 516.975L929.717 518.484L929.717 515.466"/>
<path class="l4" d="M1021.77 492.829L1021.77 519.993"/>
<path class="l4" d="M1005.17 506.411L1018.76 506.411"/>
<path class="l4" d="M1029.32 488.301L1029.32 495.847"/>
<path class="l4" d="M1029.32 516.975L1029.32 524.521"/>
<path class="l4" d="M1018.76 497.356L1018.76 515.466"/>
<path class="l4" d="M1021.77 495.847L1029.32 495.847"/>
<path class="l4" d="M1021.77 516.975L1026.3 516.975"/>
<path class="l4" d="M1026.3 515.466L1029.32 516.975L1026.3 518.484L1026.3 515.466"/>
<path class="l4" d="M1125.9 488.301L1125.9 495.847"/>
<path class="l4" d="M1125.9 516.975L1125.9 524.521"/>
<path class="l4" d="M1118.36 495.847L1125.9 495.847"/>
<path class="l4" d="M1118.36 516.975L1122.89 516.975"/>
<path class="l4" d="M1101.76 506.411L1112.32 506.411"/>
<path class="l4" d="M1118.36 492.829L1118.36 498.865"/>
<path class="l4" d="M1118.36 513.957L1118.36 519.993"/>
<path class="l4" d="M1118.36 503.393L1118.36 509.429"/>
<path class="l4" d="M1122.89 515.466L1125.9 516.975L1122.89 518.484L1122.89 515.466"/>
<path class="l4" style="fill:none;" d="M1112.32 515.466L1112.32 497.356L1115.34 497.356L1115.34 515.466L1112.32 515.466"/>
<path class="l4" d="M1222.49 488.301L1222.49 495.847"/>
<path class="l4" d="M1222.49 516.975L1222.49 524.521"/>
<path class="l4" d="M1214.94 495.847L1222.49 495.847"/>
<path class="l4" d="M1214.94 516.975L1219.47 516.975"/>
<path class="l4" d="M1198.34 506.411L1208.91 506.411"/>
<path class="l4" d="M1214.94 492.829L1214.94 498.865"/>
<path class="l4" d="M1214.94 513.957L1214.94 519.993"/>
<path class="l4" d="M1214.94 503.393L1214.94 509.429"/>
<path class="l4" d="M1219.47 515.466L1222.49 516.975L1219.47 518.484L1219.47 515.466"/>
<path class="l4" style="fill:none;" d="M1208.91 515.466L1208.91 497.356L1211.92 497.356L1211.92 515.466L1208.91 515.466"/>
<path class="l4" d="M932.735 542.63L932.735 550.176"/>
<path class="l4" d="M932.735 571.304L932.735 578.849"/>
<path class="l4" d="M925.189 550.176L932.735 550.176"/>
<path class="l4" d="M925.189 571.304L929.717 571.304"/>
<path class="l4" d="M925.189 547.158L925.189 574.322"/>
<path class="l4" d="M908.589 560.74L919.153 560.74"/>
<path class="l4" d="M929.717 569.795L932.735 571.304L929.717 572.813L929.717 569.795"/>
<path class="l4" style="fill:none;" d="M919.153 569.795L919.153 551.685L922.171 551.685L922.171 569.795L919.153 569.795"/>
<path class="l4" d="M1029.32 542.63L1029.32 550.176"/>
<path class="l4" d="M1029.32 571.304L1029.32 578.849"/>
<path class="l4" d="M1021.77 550.176L1029.32 550.176"/>
<path class="l4" d="M1021.77 571.304L1026.3 571.304"/>
<path class="l4" d="M1021.77 547.158L1021.77 574.322"/>
<path class="l4" d="M1018.76 556.212L1021.77 556.212"/>
<path class="l4" d="M1005.17 560.74L1015.74 560.74"/>
<path class="l4" d="M1018.76 551.685L1021.77 551.685"/>
<path class="l4" d="M1026.3 569.795L1029.32 571.304L1026.3 572.813L1026.3 569.795"/>
<path class="l4" style="fill:none;" d="M1015.74 569.795L1015.74 551.685L1018.76 551.685L1018.76 569.795L1015.74 569.795"/>
<path class="l4" d="M1125.9 542.63L1125.9 550.176"/>
<path class="l4" d="M1125.9 571.304L1125.9 578.849"/>
<path class="l4" d="M1119.11 550.176L1125.9 550.176"/>
<path class="l4" d="M1119.11 571.304L1122.89 571.304"/>
<path class="l4" d="M1119.11 547.158L1119.11 574.322"/>
<path class="l4" d="M1115.34 551.685L1119.11 551.685"/>
<path class="l4" d="M1115.34 557.721L1119.11 557.721"/>
<path class="l4" d="M1115.34 555.458L1119.11 555.458"/>
<path class="l4" d="M1101.76 560.74L1112.32 560.74"/>
<path class="l4" d="M1115.34 554.703L1116.09 555.458"/>
<path class="l4" d="M1118.36 555.458L1119.11 554.703"/>
<path class="l4" d="M1118.36 551.685L1119.11 552.439"/>
<path class="l4" d="M1115.34 552.439L1116.09 551.685"/>
<path class="l4" d="M1118.36 552.439L1118.55 552.251"/>
<path class="l4" d="M1115.91 554.892L1116.09 554.703"/>
<path class="l4" d="M1115.91 552.251L1116.09 552.439"/>
<path class="l4" d="M1118.36 554.703L1118.55 554.892"/>
<path class="l4" d="M1122.89 569.795L1125.9 571.304L1122.89 572.813L1122.89 569.795"/>
<path class="l4" style="fill:none;" d="M1112.32 569.795L1112.32 551.685L1115.34 551.685L1115.34 569.795L1112.32 569.795"/>
<path class="l4" d="M1116.47 552.817L1117.98 552.817L1117.98 554.326L1116.47 554.326L1116.47 552.817z"/>
<path class="l4" d="M1112.32 353.989L1112.32 381.153"/>
<path class="l4" d="M1119.87 349.461L1119.87 357.007"/>
<path class="l4" d="M1119.87 378.135L1119.87 385.68"/>
<path class="l4" d="M1109.3 358.516L1109.3 376.626"/>
<path class="l4" d="M1112.32 378.135L1119.87 378.135"/>
<path class="l4" d="M1115.34 357.007L1119.87 357.007"/>
<path class="l4" d="M1095.72 367.571L1103.27 367.571"/>
<path class="l4" d="M1115.34 355.498L1112.32 357.007L1115.34 358.516L1115.34 355.498"/>
<circle class="l4" cx="1106.29" cy="367.571" r="3.01826" style="fill:none;"/>
<path class="l4" d="M926.699 409.826L926.699 417.372"/>
<path class="l4" d="M926.699 438.5L926.699 446.046"/>
<path class="l4" d="M919.153 438.5L926.699 438.5"/>
<path class="l4" d="M922.171 417.372L926.699 417.372"/>
<path class="l4" d="M902.553 427.936L907.08 427.936"/>
<path class="l4" d="M919.153 414.354L919.153 441.518"/>
<path class="l4" d="M922.171 415.863L919.153 417.372L922.171 418.881L922.171 415.863"/>
<path class="l4" style="fill:none;" d="M913.116 436.991L913.116 418.881L916.135 418.881L916.135 436.991L913.116 436.991"/>
<circle class="l4" cx="910.098" cy="427.936" r="3.01826" style="fill:none;"/>
<path class="l4" d="M919.153 353.989L919.153 381.153"/>
<path class="l4" d="M926.699 349.461L926.699 357.007"/>
<path class="l4" d="M926.699 378.135L926.699 385.68"/>
<path class="l4" d="M916.135 358.516L916.135 376.626"/>
<path class="l4" d="M919.153 378.135L926.699 378.135"/>
<path class="l4" d="M922.171 357.007L926.699 357.007"/>
<path class="l4" d="M902.553 367.571L910.098 367.571"/>
<path class="l4" d="M922.171 355.498L919.153 357.007L922.171 358.516L922.171 355.498"/>
<circle class="l4" cx="913.116" cy="367.571" r="3.01826" style="fill:none;"/>
<path class="l4" d="M1015.74 353.989L1015.74 381.153"/>
<path class="l4" d="M1023.28 349.461L1023.28 357.007"/>
<path class="l4" d="M1023.28 378.135L1023.28 385.68"/>
<path class="l4" d="M1012.72 358.516L1012.72 376.626"/>
<path class="l4" d="M1015.74 378.135L1023.28 378.135"/>
<path class="l4" d="M1018.76 357.007L1023.28 357.007"/>
<path class="l4" d="M999.137 367.571L1006.68 367.571"/>
<path class="l4" d="M1018.76 355.498L1015.74 357.007L1018.76 358.516L1018.76 355.498"/>
<circle class="l4" cx="1009.7" cy="367.571" r="3.01826" style="fill:none;"/>
<path class="l4" d="M1023.28 409.826L1023.28 417.372"/>
<path class="l4" d="M1023.28 438.5L1023.28 446.046"/>
<path class="l4" d="M1015.74 438.5L1023.28 438.5"/>
<path class="l4" d="M1018.76 417.372L1023.28 417.372"/>
<path class="l4" d="M1015.74 414.354L1015.74 441.518"/>
<path class="l4" d="M1012.72 432.463L1015.74 432.463"/>
<path class="l4" d="M1012.72 436.991L1015.74 436.991"/>
<path class="l4" d="M999.137 427.936L1003.66 427.936"/>
<path class="l4" d="M1018.76 415.863L1015.74 417.372L1018.76 418.881L1018.76 415.863"/>
<path class="l4" style="fill:none;" d="M1009.7 436.991L1009.7 418.881L1012.72 418.881L1012.72 436.991L1009.7 436.991"/>
<circle class="l4" cx="1006.68" cy="427.936" r="3.01826" style="fill:none;"/>
<path class="l4" d="M1119.87 409.826L1119.87 417.372"/>
<path class="l4" d="M1119.87 438.5L1119.87 446.046"/>
<path class="l4" d="M1113.08 438.5L1119.87 438.5"/>
<path class="l4" d="M1116.09 417.372L1119.87 417.372"/>
<path class="l4" d="M1113.08 414.354L1113.08 441.518"/>
<path class="l4" d="M1095.72 427.936L1100.25 427.936"/>
<path class="l4" d="M1109.3 433.218L1113.08 433.218"/>
<path class="l4" d="M1109.3 436.991L1113.08 436.991"/>
<path class="l4" d="M1109.3 436.236L1110.06 436.991"/>
<path class="l4" d="M1112.32 436.991L1113.08 436.236"/>
<path class="l4" d="M1112.32 433.218L1113.08 433.973"/>
<path class="l4" d="M1109.3 433.973L1110.06 433.218"/>
<path class="l4" d="M1112.32 433.973L1112.51 433.784"/>
<path class="l4" d="M1109.87 436.425L1110.06 436.236"/>
<path class="l4" d="M1109.87 433.784L1110.06 433.973"/>
<path class="l4" d="M1112.32 436.236L1112.51 436.425"/>
<path class="l4" d="M1109.3 430.954L1113.08 430.954"/>
<path class="l4" d="M1116.09 415.863L1113.08 417.372L1116.09 418.881L1116.09 415.863"/>
<path class="l4" style="fill:none;" d="M1106.29 436.991L1106.29 418.881L1109.3 418.881L1109.3 436.991L1106.29 436.991"/>
<circle class="l4" cx="1103.27" cy="427.936" r="3.01826" style="fill:none;"/>
<path class="l4" d="M1110.44 434.35L1111.94 434.35L1111.94 435.859L1110.44 435.859L1110.44 434.35z"/>
<path class="l5" d="M448.304 945.568L451.322 945.568L451.322 948.587L448.304 948.587L448.304 945.568z"/>
<path class="l5" d="M448.304 909.349L451.322 909.349L451.322 912.368L448.304 912.368L448.304 909.349z"/>
<path class="l5" d="M188.733 945.568L191.751 945.568L191.751 948.587L188.733 948.587L188.733 945.568z"/>
<path class="l5" d="M188.733 909.349L191.751 909.349L191.751 912.368L188.733 912.368L188.733 909.349z"/>
<path class="l5" d="M329.082 981.033L324.555 983.297L329.082 985.561L329.082 981.033"/>
<path class="l5" d="M327.573 999.897L330.591 999.897L330.591 1002.92L327.573 1002.92L327.573 999.897z"/>
<path class="l5" d="M303.427 981.788L306.445 981.788L306.445 984.806L303.427 984.806L303.427 981.788z"/>
<path class="l5" d="M327.573 963.678L330.591 963.678L330.591 966.696L327.573 966.696L327.573 963.678z"/>
<path class="l5" d="M329.035 983.25L329.129 983.25L329.129 983.344L329.035 983.344L329.035 983.25z"/>
<path class="l5" d="M224.952 649.779L227.97 649.779L227.97 652.797L224.952 652.797L224.952 649.779z"/>
<path class="l5" d="M224.952 613.559L227.97 613.559L227.97 616.578L224.952 616.578L224.952 613.559z"/>
<path class="l5" d="M212.879 631.669L215.897 631.669L215.897 634.687L212.879 634.687L212.879 631.669z"/>
<path class="l5" d="M321.537 649.779L324.555 649.779L324.555 652.797L321.537 652.797L321.537 649.779z"/>
<path class="l5" d="M321.537 613.559L324.555 613.559L324.555 616.578L321.537 616.578L321.537 613.559z"/>
<path class="l5" d="M309.463 631.669L312.482 631.669L312.482 634.687L309.463 634.687L309.463 631.669z"/>
<path class="l5" d="M418.121 649.779L421.139 649.779L421.139 652.797L418.121 652.797L418.121 649.779z"/>
<path class="l5" d="M418.121 613.559L421.139 613.559L421.139 616.578L418.121 616.578L418.121 613.559z"/>
<path class="l5" d="M406.048 631.669L409.066 631.669L409.066 634.687L406.048 634.687L406.048 631.669z"/>
<path class="l5" d="M514.705 649.779L517.724 649.779L517.724 652.797L514.705 652.797L514.705 649.779z"/>
<path class="l5" d="M514.705 613.559L517.724 613.559L517.724 616.578L514.705 616.578L514.705 613.559z"/>
<path class="l5" d="M224.952 728.253L227.97 728.253L227.97 731.272L224.952 731.272L224.952 728.253z"/>
<path class="l5" d="M224.952 692.034L227.97 692.034L227.97 695.053L224.952 695.053L224.952 692.034z"/>
<path class="l5" d="M212.879 710.144L215.897 710.144L215.897 713.162L212.879 713.162L212.879 710.144z"/>
<path class="l5" d="M321.537 728.253L324.555 728.253L324.555 731.272L321.537 731.272L321.537 728.253z"/>
<path class="l5" d="M321.537 692.034L324.555 692.034L324.555 695.053L321.537 695.053L321.537 692.034z"/>
<path class="l5" d="M309.463 710.144L312.482 710.144L312.482 713.162L309.463 713.162L309.463 710.144z"/>
<path class="l5" d="M418.121 728.253L421.139 728.253L421.139 731.272L418.121 731.272L418.121 728.253z"/>
<path class="l5" d="M418.121 692.034L421.139 692.034L421.139 695.053L418.121 695.053L418.121 692.034z"/>
<path class="l5" d="M406.048 710.144L409.066 710.144L409.066 713.162L406.048 713.162L406.048 710.144z"/>
<path class="l5" d="M514.705 728.253L517.724 728.253L517.724 731.272L514.705 731.272L514.705 728.253z"/>
<path class="l5" d="M514.705 692.034L517.724 692.034L517.724 695.053L514.705 695.053L514.705 692.034z"/>
<path class="l5" d="M502.632 710.144L505.651 710.144L505.651 713.162L502.632 713.162L502.632 710.144z"/>
<path class="l5" d="M224.952 806.728L227.97 806.728L227.97 809.747L224.952 809.747L224.952 806.728z"/>
<path class="l5" d="M224.952 770.509L227.97 770.509L227.97 773.527L224.952 773.527L224.952 770.509z"/>
<path class="l5" d="M212.879 788.619L215.897 788.619L215.897 791.637L212.879 791.637L212.879 788.619z"/>
<path class="l5" d="M321.537 806.728L324.555 806.728L324.555 809.747L321.537 809.747L321.537 806.728z"/>
<path class="l5" d="M321.537 770.509L324.555 770.509L324.555 773.527L321.537 773.527L321.537 770.509z"/>
<path class="l5" d="M309.463 788.619L312.482 788.619L312.482 791.637L309.463 791.637L309.463 788.619z"/>
<path class="l5" d="M418.121 806.728L421.139 806.728L421.139 809.747L418.121 809.747L418.121 806.728z"/>
<path class="l5" d="M418.121 770.509L421.139 770.509L421.139 773.527L418.121 773.527L418.121 770.509z"/>
<path class="l5" d="M406.048 788.619L409.066 788.619L409.066 791.637L406.048 791.637L406.048 788.619z"/>
<path class="l5" d="M514.705 806.728L517.724 806.728L517.724 809.747L514.705 809.747L514.705 806.728z"/>
<path class="l5" d="M514.705 770.509L517.724 770.509L517.724 773.527L514.705 773.527L514.705 770.509z"/>
<path class="l5" d="M502.632 788.619L505.651 788.619L505.651 791.637L502.632 791.637L502.632 788.619z"/>
<path class="l5" d="M226.461 504.902L223.443 506.411L226.461 507.92L226.461 504.902"/>
<path class="l5" d="M224.952 486.792L227.97 486.792L227.97 489.811L224.952 489.811L224.952 486.792z"/>
<path class="l5" d="M200.806 504.902L203.824 504.902L203.824 507.92L200.806 507.92L200.806 504.902z"/>
<path class="l5" d="M224.952 523.011L227.97 523.011L227.97 526.03L224.952 526.03L224.952 523.011z"/>
<path class="l5" d="M226.414 506.364L226.508 506.364L226.508 506.458L226.414 506.458L226.414 506.364z"/>
<path class="l5" d="M323.046 504.902L320.027 506.411L323.046 507.92L323.046 504.902"/>
<path class="l5" d="M321.537 486.792L324.555 486.792L324.555 489.811L321.537 489.811L321.537 486.792z"/>
<path class="l5" d="M297.39 504.902L300.409 504.902L300.409 507.92L297.39 507.92L297.39 504.902z"/>
<path class="l5" d="M321.537 523.011L324.555 523.011L324.555 526.03L321.537 526.03L321.537 523.011z"/>
<path class="l5" d="M322.999 506.364L323.093 506.364L323.093 506.458L322.999 506.458L322.999 506.364z"/>
<path class="l5" d="M419.63 504.902L416.612 506.411L419.63 507.92L419.63 504.902"/>
<path class="l5" d="M418.121 486.792L421.139 486.792L421.139 489.811L418.121 489.811L418.121 486.792z"/>
<path class="l5" d="M393.975 504.902L396.993 504.902L396.993 507.92L393.975 507.92L393.975 504.902z"/>
<path class="l5" d="M418.121 523.011L421.139 523.011L421.139 526.03L418.121 526.03L418.121 523.011z"/>
<path class="l5" d="M419.583 506.364L419.677 506.364L419.677 506.458L419.583 506.458L419.583 506.364z"/>
<path class="l5" d="M516.215 504.902L513.196 506.411L516.215 507.92L516.215 504.902"/>
<path class="l5" d="M514.705 486.792L517.724 486.792L517.724 489.811L514.705 489.811L514.705 486.792z"/>
<path class="l5" d="M490.559 504.902L493.578 504.902L493.578 507.92L490.559 507.92L490.559 504.902z"/>
<path class="l5" d="M514.705 523.011L517.724 523.011L517.724 526.03L514.705 526.03L514.705 523.011z"/>
<path class="l5" d="M516.167 506.364L516.262 506.364L516.262 506.458L516.167 506.458L516.167 506.364z"/>
<path class="l5" d="M226.461 559.231L223.443 560.74L226.461 562.249L226.461 559.231"/>
<path class="l5" d="M224.952 541.121L227.97 541.121L227.97 544.139L224.952 544.139L224.952 541.121z"/>
<path class="l5" d="M200.806 559.231L203.824 559.231L203.824 562.249L200.806 562.249L200.806 559.231z"/>
<path class="l5" d="M224.952 577.34L227.97 577.34L227.97 580.358L224.952 580.358L224.952 577.34z"/>
<path class="l5" d="M226.414 560.693L226.508 560.693L226.508 560.787L226.414 560.787L226.414 560.693z"/>
<path class="l5" d="M323.046 559.231L320.027 560.74L323.046 562.249L323.046 559.231"/>
<path class="l5" d="M321.537 541.121L324.555 541.121L324.555 544.139L321.537 544.139L321.537 541.121z"/>
<path class="l5" d="M297.39 559.231L300.409 559.231L300.409 562.249L297.39 562.249L297.39 559.231z"/>
<path class="l5" d="M321.537 577.34L324.555 577.34L324.555 580.358L321.537 580.358L321.537 577.34z"/>
<path class="l5" d="M322.999 560.693L323.093 560.693L323.093 560.787L322.999 560.787L322.999 560.693z"/>
<path class="l5" d="M419.63 559.231L416.612 560.74L419.63 562.249L419.63 559.231"/>
<path class="l5" d="M418.121 541.121L421.139 541.121L421.139 544.139L418.121 544.139L418.121 541.121z"/>
<path class="l5" d="M393.975 559.231L396.993 559.231L396.993 562.249L393.975 562.249L393.975 559.231z"/>
<path class="l5" d="M418.121 577.34L421.139 577.34L421.139 580.358L418.121 580.358L418.121 577.34z"/>
<path class="l5" d="M419.583 560.693L419.677 560.693L419.677 560.787L419.583 560.787L419.583 560.693z"/>
<path class="l5" d="M416.612 366.062L419.63 367.571L416.612 369.08L416.612 366.062"/>
<path class="l5" d="M418.121 384.171L421.139 384.171L421.139 387.189L418.121 387.189L418.121 384.171z"/>
<path class="l5" d="M393.975 366.062L396.993 366.062L396.993 369.08L393.975 369.08L393.975 366.062z"/>
<path class="l5" d="M418.121 347.952L421.139 347.952L421.139 350.97L418.121 350.97L418.121 347.952z"/>
<path class="l5" d="M419.583 367.524L419.677 367.524L419.677 367.618L419.583 367.618L419.583 367.524z"/>
<path class="l5" d="M223.443 426.427L226.461 427.936L223.443 429.445L223.443 426.427"/>
<path class="l5" d="M224.952 444.537L227.97 444.537L227.97 447.555L224.952 447.555L224.952 444.537z"/>
<path class="l5" d="M200.806 426.427L203.824 426.427L203.824 429.445L200.806 429.445L200.806 426.427z"/>
<path class="l5" d="M224.952 408.317L227.97 408.317L227.97 411.336L224.952 411.336L224.952 408.317z"/>
<path class="l5" d="M226.414 427.889L226.508 427.889L226.508 427.983L226.414 427.983L226.414 427.889z"/>
<path class="l5" d="M223.443 366.062L226.461 367.571L223.443 369.08L223.443 366.062"/>
<path class="l5" d="M224.952 384.171L227.97 384.171L227.97 387.189L224.952 387.189L224.952 384.171z"/>
<path class="l5" d="M200.806 366.062L203.824 366.062L203.824 369.08L200.806 369.08L200.806 366.062z"/>
<path class="l5" d="M224.952 347.952L227.97 347.952L227.97 350.97L224.952 350.97L224.952 347.952z"/>
<path class="l5" d="M226.414 367.524L226.508 367.524L226.508 367.618L226.414 367.618L226.414 367.524z"/>
<path class="l5" d="M320.027 366.062L323.046 367.571L320.027 369.08L320.027 366.062"/>
<path class="l5" d="M321.537 384.171L324.555 384.171L324.555 387.189L321.537 387.189L321.537 384.171z"/>
<path class="l5" d="M297.39 366.062L300.409 366.062L300.409 369.08L297.39 369.08L297.39 366.062z"/>
<path class="l5" d="M321.537 347.952L324.555 347.952L324.555 350.97L321.537 350.97L321.537 347.952z"/>
<path class="l5" d="M322.999 367.524L323.093 367.524L323.093 367.618L322.999 367.618L322.999 367.524z"/>
<path class="l5" d="M320.027 426.427L323.046 427.936L320.027 429.445L320.027 426.427"/>
<path class="l5" d="M321.537 444.537L324.555 444.537L324.555 447.555L321.537 447.555L321.537 444.537z"/>
<path class="l5" d="M297.39 426.427L300.409 426.427L300.409 429.445L297.39 429.445L297.39 426.427z"/>
<path class="l5" d="M321.537 408.317L324.555 408.317L324.555 411.336L321.537 411.336L321.537 408.317z"/>
<path class="l5" d="M322.999 427.889L323.093 427.889L323.093 427.983L322.999 427.983L322.999 427.889z"/>
<path class="l5" d="M416.612 426.427L419.63 427.936L416.612 429.445L416.612 426.427"/>
<path class="l5" d="M418.121 444.537L421.139 444.537L421.139 447.555L418.121 447.555L418.121 444.537z"/>
<path class="l5" d="M393.975 426.427L396.993 426.427L396.993 429.445L393.975 429.445L393.975 426.427z"/>
<path class="l5" d="M418.121 408.317L421.139 408.317L421.139 411.336L418.121 411.336L418.121 408.317z"/>
<path class="l5" d="M419.583 427.889L419.677 427.889L419.677 427.983L419.583 427.983L419.583 427.889z"/>
<path class="l5" d="M273.244 281.55L276.263 281.55L276.263 284.568L273.244 284.568L273.244 281.55z"/>
<path class="l5" d="M273.244 317.769L276.263 317.769L276.263 320.788L273.244 320.788L273.244 317.769z"/>
<path class="l5" d="M369.829 281.55L372.847 281.55L372.847 284.568L369.829 284.568L369.829 281.55z"/>
<path class="l5" d="M369.829 317.769L372.847 317.769L372.847 320.788L369.829 320.788L369.829 317.769z"/>
<path class="l5" d="M273.244 197.039L276.263 197.039L276.263 200.057L273.244 200.057L273.244 197.039z"/>
<path class="l5" d="M273.244 233.258L276.263 233.258L276.263 236.276L273.244 236.276L273.244 233.258z"/>
<path class="l5" d="M249.098 227.221L252.116 227.221L252.116 230.24L249.098 230.24L249.098 227.221z"/>
<path class="l5" d="M369.829 197.039L372.847 197.039L372.847 200.057L369.829 200.057L369.829 197.039z"/>
<path class="l5" d="M369.829 233.258L372.847 233.258L372.847 236.276L369.829 236.276L369.829 233.258z"/>
<path class="l5" d="M345.683 227.221L348.701 227.221L348.701 230.24L345.683 230.24L345.683 227.221z"/>
<path class="l5" d="M303.427 124.6L306.445 124.6L306.445 127.619L303.427 127.619L303.427 124.6z"/>
<path class="l5" d="M303.427 160.82L306.445 160.82L306.445 163.838L303.427 163.838L303.427 160.82z"/>
<path class="l5" d="M291.354 136.674L294.372 136.674L294.372 139.692L291.354 139.692L291.354 136.674z"/>
<path class="l5" d="M291.354 148.747L294.372 148.747L294.372 151.765L291.354 151.765L291.354 148.747z"/>
<path class="l5" d="M516.215 559.231L513.196 560.74L516.215 562.249L516.215 559.231"/>
<path class="l5" d="M514.705 541.121L517.724 541.121L517.724 544.139L514.705 544.139L514.705 541.121z"/>
<path class="l5" d="M490.559 559.231L493.578 559.231L493.578 562.249L490.559 562.249L490.559 559.231z"/>
<path class="l5" d="M514.705 577.34L517.724 577.34L517.724 580.358L514.705 580.358L514.705 577.34z"/>
<path class="l5" d="M516.167 560.693L516.262 560.693L516.262 560.787L516.167 560.787L516.167 560.693z"/>
<path class="l5" d="M496.596 571.304L499.614 571.304L499.614 574.322L496.596 574.322L496.596 571.304z"/>
<path class="l5" d="M612.799 559.231L609.781 560.74L612.799 562.249L612.799 559.231"/>
<path class="l5" d="M611.29 541.121L614.308 541.121L614.308 544.139L611.29 544.139L611.29 541.121z"/>
<path class="l5" d="M587.144 559.231L590.162 559.231L590.162 562.249L587.144 562.249L587.144 559.231z"/>
<path class="l5" d="M611.29 577.34L614.308 577.34L614.308 580.358L611.29 580.358L611.29 577.34z"/>
<path class="l5" d="M612.752 560.693L612.846 560.693L612.846 560.787L612.752 560.787L612.752 560.693z"/>
<path class="l5" d="M593.18 571.304L596.199 571.304L596.199 574.322L593.18 574.322L593.18 571.304z"/>
<path class="l5" d="M697.311 559.231L694.292 560.74L697.311 562.249L697.311 559.231"/>
<path class="l5" d="M695.801 541.121L698.82 541.121L698.82 544.139L695.801 544.139L695.801 541.121z"/>
<path class="l5" d="M671.655 559.231L674.674 559.231L674.674 562.249L671.655 562.249L671.655 559.231z"/>
<path class="l5" d="M695.801 577.34L698.82 577.34L698.82 580.358L695.801 580.358L695.801 577.34z"/>
<path class="l5" d="M697.263 560.693L697.358 560.693L697.358 560.787L697.263 560.787L697.263 560.693z"/>
<path class="l5" d="M931.226 486.792L934.244 486.792L934.244 489.811L931.226 489.811L931.226 486.792z"/>
<path class="l5" d="M907.08 504.902L910.098 504.902L910.098 507.92L907.08 507.92L907.08 504.902z"/>
<path class="l5" d="M931.226 523.011L934.244 523.011L934.244 526.03L931.226 526.03L931.226 523.011z"/>
<path class="l5" d="M1027.81 486.792L1030.83 486.792L1030.83 489.811L1027.81 489.811L1027.81 486.792z"/>
<path class="l5" d="M1003.66 504.902L1006.68 504.902L1006.68 507.92L1003.66 507.92L1003.66 504.902z"/>
<path class="l5" d="M1027.81 523.011L1030.83 523.011L1030.83 526.03L1027.81 526.03L1027.81 523.011z"/>
<path class="l5" d="M1124.39 486.792L1127.41 486.792L1127.41 489.811L1124.39 489.811L1124.39 486.792z"/>
<path class="l5" d="M1100.25 504.902L1103.27 504.902L1103.27 507.92L1100.25 507.92L1100.25 504.902z"/>
<path class="l5" d="M1124.39 523.011L1127.41 523.011L1127.41 526.03L1124.39 526.03L1124.39 523.011z"/>
<path class="l5" d="M1220.98 486.792L1224 486.792L1224 489.811L1220.98 489.811L1220.98 486.792z"/>
<path class="l5" d="M1196.83 504.902L1199.85 504.902L1199.85 507.92L1196.83 507.92L1196.83 504.902z"/>
<path class="l5" d="M1220.98 523.011L1224 523.011L1224 526.03L1220.98 526.03L1220.98 523.011z"/>
<path class="l5" d="M931.226 541.121L934.244 541.121L934.244 544.139L931.226 544.139L931.226 541.121z"/>
<path class="l5" d="M907.08 559.231L910.098 559.231L910.098 562.249L907.08 562.249L907.08 559.231z"/>
<path class="l5" d="M931.226 577.34L934.244 577.34L934.244 580.358L931.226 580.358L931.226 577.34z"/>
<path class="l5" d="M1027.81 541.121L1030.83 541.121L1030.83 544.139L1027.81 544.139L1027.81 541.121z"/>
<path class="l5" d="M1003.66 559.231L1006.68 559.231L1006.68 562.249L1003.66 562.249L1003.66 559.231z"/>
<path class="l5" d="M1027.81 577.34L1030.83 577.34L1030.83 580.358L1027.81 580.358L1027.81 577.34z"/>
<path class="l5" d="M1124.39 541.121L1127.41 541.121L1127.41 544.139L1124.39 544.139L1124.39 541.121z"/>
<path class="l5" d="M1100.25 559.231L1103.27 559.231L1103.27 562.249L1100.25 562.249L1100.25 559.231z"/>
<path class="l5" d="M1124.39 577.34L1127.41 577.34L1127.41 580.358L1124.39 580.358L1124.39 577.34z"/>
<path class="l5" d="M1118.36 384.171L1121.38 384.171L1121.38 387.189L1118.36 387.189L1118.36 384.171z"/>
<path class="l5" d="M1094.21 366.062L1097.23 366.062L1097.23 369.08L1094.21 369.08L1094.21 366.062z"/>
<path class="l5" d="M1118.36 347.952L1121.38 347.952L1121.38 350.97L1118.36 350.97L1118.36 347.952z"/>
<path class="l5" d="M925.189 444.537L928.208 444.537L928.208 447.555L925.189 447.555L925.189 444.537z"/>
<path class="l5" d="M901.043 426.427L904.062 426.427L904.062 429.445L901.043 429.445L901.043 426.427z"/>
<path class="l5" d="M925.189 408.317L928.208 408.317L928.208 411.336L925.189 411.336L925.189 408.317z"/>
<path class="l5" d="M925.189 384.171L928.208 384.171L928.208 387.189L925.189 387.189L925.189 384.171z"/>
<path class="l5" d="M901.043 366.062L904.062 366.062L904.062 369.08L901.043 369.08L901.043 366.062z"/>
<path class="l5" d="M925.189 347.952L928.208 347.952L928.208 350.97L925.189 350.97L925.189 347.952z"/>
<path class="l5" d="M1021.77 384.171L1024.79 384.171L1024.79 387.189L1021.77 387.189L1021.77 384.171z"/>
<path class="l5" d="M997.628 366.062L1000.65 366.062L1000.65 369.08L997.628 369.08L997.628 366.062z"/>
<path class="l5" d="M1021.77 347.952L1024.79 347.952L1024.79 350.97L1021.77 350.97L1021.77 347.952z"/>
<path class="l5" d="M1021.77 444.537L1024.79 444.537L1024.79 447.555L1021.77 447.555L1021.77 444.537z"/>
<path class="l5" d="M997.628 426.427L1000.65 426.427L1000.65 429.445L997.628 429.445L997.628 426.427z"/>
<path class="l5" d="M1021.77 408.317L1024.79 408.317L1024.79 411.336L1021.77 411.336L1021.77 408.317z"/>
<path class="l5" d="M1118.36 444.537L1121.38 444.537L1121.38 447.555L1118.36 447.555L1118.36 444.537z"/>
<path class="l5" d="M1094.21 426.427L1097.23 426.427L1097.23 429.445L1094.21 429.445L1094.21 426.427z"/>
<path class="l5" d="M1118.36 408.317L1121.38 408.317L1121.38 411.336L1118.36 411.336L1118.36 408.317z"/>
</svg>
