<svg xmlns="http://www.w3.org/2000/svg" width="300" height="150" version="1.1">
<style type="text/css">
.l0{
  fill-opacity:0;
 fill: #ffffff;
  stroke: #ffffff;
  stroke-linecap:round;
  stroke-linejoin:round;
  stroke-width: 0.96;
}
.l1{
 fill: #0044ee;
  stroke: #0044ee;
  stroke-linecap:round;
  stroke-linejoin:round;
  stroke-width: 0.96;
}
.l2{
  fill: none;
  stroke: #aaaaaa;
  stroke-linecap:round;
  stroke-linejoin:round;
  stroke-width: 0.96;
}
.l3{
 fill: #222222; fill-opacity: 0.5;
  stroke: #222222;
  stroke-linecap:round;
  stroke-linejoin:round;
  stroke-width: 0.96;
}
.l4{
 fill: #229900;
  stroke: #229900;
  stroke-linecap:round;
  stroke-linejoin:round;
  stroke-width: 0.96;
}
.l5{
 fill: #bb2200;
  stroke: #bb2200;
  stroke-linecap:round;
  stroke-linejoin:round;
  stroke-width: 0.96;
}
.l6{
 fill: #00ccee; fill-opacity: 0.5;
  stroke: #00ccee;
  stroke-linecap:round;
  stroke-linejoin:round;
  stroke-width: 0.96;
}
.l7{
 fill: #ff0000; fill-opacity: 0.5;
  stroke: #ff0000;
  stroke-linecap:round;
  stroke-linejoin:round;
  stroke-width: 0.96;
}
.l8{
 fill: #888800; fill-opacity: 0.5;
  stroke: #888800;
  stroke-linecap:round;
  stroke-linejoin:round;
  stroke-width: 0.96;
}
.l9{
 fill: #00aaaa; fill-opacity: 0.5;
  stroke: #00aaaa;
  stroke-linecap:round;
  stroke-linejoin:round;
  stroke-width: 0.96;
}
.l10{
 fill: #880088;
  stroke: #880088;
  stroke-linecap:round;
  stroke-linejoin:round;
  stroke-width: 0.96;
}
.l11{
 fill: #00ff00; fill-opacity: 0.5;
  stroke: #00ff00;
  stroke-linecap:round;
  stroke-linejoin:round;
  stroke-width: 0.96;
}
.l12{
 fill: #0000cc; fill-opacity: 0.5;
  stroke: #0000cc;
  stroke-linecap:round;
  stroke-linejoin:round;
  stroke-width: 0.96;
}
.l13{
 fill: #666600; fill-opacity: 0.5;
  stroke: #666600;
  stroke-linecap:round;
  stroke-linejoin:round;
  stroke-width: 0.96;
}
.l14{
  fill: none;
  stroke: #557755;
  stroke-linecap:round;
  stroke-linejoin:round;
  stroke-width: 0.96;
}
.l15{
 fill: #aa2222; fill-opacity: 0.5;
  stroke: #aa2222;
  stroke-linecap:round;
  stroke-linejoin:round;
  stroke-width: 0.96;
}
.l16{
 fill: #7ccc40; fill-opacity: 0.5;
  stroke: #7ccc40;
  stroke-linecap:round;
  stroke-linejoin:round;
  stroke-width: 0.96;
}
.l17{
  fill: none;
  stroke: #00ffcc;
  stroke-linecap:round;
  stroke-linejoin:round;
  stroke-width: 0.96;
}
.l18{
 fill: #ce0097; fill-opacity: 0.5;
  stroke: #ce0097;
  stroke-linecap:round;
  stroke-linejoin:round;
  stroke-width: 0.96;
}
.l19{
  fill: none;
  stroke: #d2d46b;
  stroke-linecap:round;
  stroke-linejoin:round;
  stroke-width: 0.96;
}
.l20{
  fill: none;
  stroke: #ef6158;
  stroke-linecap:round;
  stroke-linejoin:round;
  stroke-width: 0.96;
}
.l21{
  fill: none;
  stroke: #fdb200;
  stroke-linecap:round;
  stroke-linejoin:round;
  stroke-width: 0.96;
}
text {font-family: Sans-Serif;}
</style>
<rect class="l0" x="0" y="0" width="300" height="150"/>
<text fill="#222222"  xml:space="preserve" font-size="15.6" transform="translate(59.5, 44.1648)" >M1</text>
<text fill="#ff0000"  xml:space="preserve" font-size="11.7" transform="translate(108.75, 111.874)" >D</text>
<text fill="#ff0000"  xml:space="preserve" font-size="11.7" transform="translate(108.75, 45.9537)" >S</text>
<text fill="#ff0000"  xml:space="preserve" font-size="11.7" transform="translate(48.1875, 70.6236)" >G</text>
<text fill="#222222"  xml:space="preserve" font-size="15.6" transform="translate(120, 58.1466)" >pfet_20v0</text>
<text fill="#666600"  xml:space="preserve" font-size="15.6" transform="translate(121.875, 106.04)" >1 x 1 / 0.15</text>
<path class="l4" d="M105 30L105 48.75"/>
<path class="l4" d="M105 101.25L105 120"/>
<path class="l4" d="M88.125 101.25L105 101.25"/>
<path class="l4" d="M95.625 48.75L105 48.75"/>
<path class="l4" d="M88.125 41.25L88.125 108.75"/>
<path class="l4" d="M45 75L56.25 75"/>
<path class="l4" d="M78.75 88.125L88.125 88.125"/>
<path class="l4" d="M78.75 97.5L88.125 97.5"/>
<path class="l4" d="M78.75 95.625L80.625 97.5"/>
<path class="l4" d="M86.25 97.5L88.125 95.625"/>
<path class="l4" d="M86.25 88.125L88.125 90"/>
<path class="l4" d="M78.75 90L80.625 88.125"/>
<path class="l4" d="M86.25 90L86.7188 89.5312"/>
<path class="l4" d="M80.1562 96.0938L80.625 95.625"/>
<path class="l4" d="M80.1562 89.5312L80.625 90"/>
<path class="l4" d="M86.25 95.625L86.7188 96.0938"/>
<path class="l4" d="M78.75 82.5L88.125 82.5"/>
<path class="l4" d="M95.625 45L88.125 48.75L95.625 52.5L95.625 45"/>
<path class="l4" style="fill:none;" d="M71.25 97.5L71.25 52.5L78.75 52.5L78.75 97.5L71.25 97.5"/>
<circle class="l4" cx="63.75" cy="75" r="7.5" style="fill:none;"/>
<path class="l4" d="M81.5625 90.9375L85.3125 90.9375L85.3125 94.6875L81.5625 94.6875L81.5625 90.9375z"/>
<path class="l5" d="M101.25 116.25L108.75 116.25L108.75 123.75L101.25 123.75L101.25 116.25z"/>
<path class="l5" d="M41.25 71.25L48.75 71.25L48.75 78.75L41.25 78.75L41.25 71.25z"/>
<path class="l5" d="M101.25 26.25L108.75 26.25L108.75 33.75L101.25 33.75L101.25 26.25z"/>
</svg>
