<svg xmlns="http://www.w3.org/2000/svg"
   xmlns:xlink="http://www.w3.org/1999/xlink"
   version="1.1"
   id="supplement6" width="100%" height="100%"  viewBox="-6 -6 1446 2022">
<desc>
XCircuit Version 3.10
File "caravel_datasheet.ps" Page 28
</desc>
<g stroke="black">
<g transform="matrix(1.75    0   -0 1.75 976 -1280)" fill="#0000ff" >
<text stroke="none" font-family="Helvetica" font-size="40" ><tspan x="-242" y="0">PCB example route pattern</tspan>
</text></g>
<ellipse cx="944" cy="1392" rx="128" ry="128" fill="none" stroke-width="2" stroke-linejoin="bevel" stroke-linecap="round" stroke="#999999" />
<g transform="matrix(1.75    0   -0 1.75 976 -1200)" fill="#0000ff" >
<text stroke="none" font-family="Helvetica" font-size="40" ><tspan x="-377" y="0">Via in center connects center ground pads</tspan>
</text></g>
<ellipse cx="768" cy="1216" rx="112" ry="112" fill="#a020f0" stroke-width="2" stroke-linejoin="bevel" stroke-linecap="round" stroke="#a020f0" />
<ellipse cx="1120" cy="1216" rx="112" ry="112" fill="#a020f0" stroke-width="2" stroke-linejoin="bevel" stroke-linecap="round" stroke="#a020f0" />
<ellipse cx="1120" cy="1568" rx="112" ry="112" fill="#a020f0" stroke-width="2" stroke-linejoin="bevel" stroke-linecap="round" stroke="#a020f0" />
<ellipse cx="768" cy="1568" rx="112" ry="112" fill="#a020f0" stroke-width="2" stroke-linejoin="bevel" stroke-linecap="round" stroke="#a020f0" />
<ellipse cx="768" cy="864" rx="112" ry="112" fill="#cd0000" stroke-width="2" stroke-linejoin="bevel" stroke-linecap="round" stroke="#cd0000" />
<ellipse cx="1120" cy="864" rx="112" ry="112" fill="#cd0000" stroke-width="2" stroke-linejoin="bevel" stroke-linecap="round" stroke="#cd0000" />
<ellipse cx="1472" cy="512" rx="112" ry="112" fill="#a020f0" stroke-width="2" stroke-linejoin="bevel" stroke-linecap="round" stroke="#a020f0" />
<ellipse cx="64" cy="160" rx="112" ry="112" fill="#cd0000" stroke-width="2" stroke-linejoin="bevel" stroke-linecap="round" stroke="#cd0000" />
<ellipse cx="1824" cy="160" rx="112" ry="112" fill="#cd0000" stroke-width="2" stroke-linejoin="bevel" stroke-linecap="round" stroke="#cd0000" />
<ellipse cx="416" cy="1568" rx="112" ry="112" fill="#a020f0" stroke-width="2" stroke-linejoin="bevel" stroke-linecap="round" stroke="#a020f0" />
<ellipse cx="64" cy="1568" rx="112" ry="112" fill="#a020f0" stroke-width="2" stroke-linejoin="bevel" stroke-linecap="round" stroke="#a020f0" />
<ellipse cx="1824" cy="2976" rx="112" ry="112" fill="#cd0000" stroke-width="2" stroke-linejoin="bevel" stroke-linecap="round" stroke="#cd0000" />
<ellipse cx="64" cy="2976" rx="112" ry="112" fill="#cd0000" stroke-width="2" stroke-linejoin="bevel" stroke-linecap="round" stroke="#cd0000" />
<ellipse cx="1472" cy="1920" rx="112" ry="112" fill="#a020f0" stroke-width="2" stroke-linejoin="bevel" stroke-linecap="round" stroke="#a020f0" />
<ellipse cx="1120" cy="1920" rx="112" ry="112" fill="#cd0000" stroke-width="2" stroke-linejoin="bevel" stroke-linecap="round" stroke="#cd0000" />
<ellipse cx="1824" cy="2976" rx="112" ry="112" fill="none" stroke-width="2" stroke-linejoin="bevel" stroke-linecap="round" stroke="#000000" />
<ellipse cx="64" cy="2976" rx="112" ry="112" fill="none" stroke-width="2" stroke-linejoin="bevel" stroke-linecap="round" stroke="#000000" />
<ellipse cx="1120" cy="1920" rx="112" ry="112" fill="none" stroke-width="2" stroke-linejoin="bevel" stroke-linecap="round" stroke="#000000" />
<ellipse cx="1472" cy="1920" rx="112" ry="112" fill="none" stroke-width="2" stroke-linejoin="bevel" stroke-linecap="round" stroke="#000000" />
<ellipse cx="768" cy="1568" rx="112" ry="112" fill="none" stroke-width="2" stroke-linejoin="bevel" stroke-linecap="round" stroke="#000000" />
<ellipse cx="1120" cy="1568" rx="112" ry="112" fill="none" stroke-width="2" stroke-linejoin="bevel" stroke-linecap="round" stroke="#000000" />
<ellipse cx="64" cy="1568" rx="112" ry="112" fill="none" stroke-width="2" stroke-linejoin="bevel" stroke-linecap="round" stroke="#000000" />
<ellipse cx="416" cy="1568" rx="112" ry="112" fill="none" stroke-width="2" stroke-linejoin="bevel" stroke-linecap="round" stroke="#000000" />
<ellipse cx="1120" cy="1216" rx="112" ry="112" fill="none" stroke-width="2" stroke-linejoin="bevel" stroke-linecap="round" stroke="#000000" />
<ellipse cx="768" cy="1216" rx="112" ry="112" fill="none" stroke-width="2" stroke-linejoin="bevel" stroke-linecap="round" stroke="#000000" />
<ellipse cx="944" cy="1392" rx="240" ry="240" fill="none" stroke-width="2" stroke-linejoin="bevel" stroke-linecap="round" stroke="#999999" />
<ellipse cx="1120" cy="864" rx="112" ry="112" fill="none" stroke-width="2" stroke-linejoin="bevel" stroke-linecap="round" stroke="#000000" />
<ellipse cx="768" cy="864" rx="112" ry="112" fill="none" stroke-width="2" stroke-linejoin="bevel" stroke-linecap="round" stroke="#000000" />
<ellipse cx="1472" cy="512" rx="112" ry="112" fill="none" stroke-width="2" stroke-linejoin="bevel" stroke-linecap="round" stroke="#000000" />
<ellipse cx="64" cy="160" rx="112" ry="112" fill="none" stroke-width="2" stroke-linejoin="bevel" stroke-linecap="round" stroke="#000000" />
<ellipse cx="1824" cy="160" rx="112" ry="112" fill="none" stroke-width="2" stroke-linejoin="bevel" stroke-linecap="round" stroke="#000000" />
<path d="M-192,160 L64,160 " fill="none" stroke-width="2" stroke-linejoin="bevel" stroke-linecap="round" stroke="#000000" />
<path d="M1824,160 L2080,160 " fill="none" stroke-width="2" stroke-linejoin="bevel" stroke-linecap="round" stroke="#000000" />
<ellipse cx="1808" cy="1568" rx="112" ry="112" fill="none" stroke-width="2" stroke-linejoin="bevel" stroke-linecap="round" stroke="#000000" />
<path d="M64,2976 L-160,3200 " fill="none" stroke-width="2" stroke-linejoin="bevel" stroke-linecap="round" stroke="#000000" />
<path d="M1824,2976 L2048,3200 " fill="none" stroke-width="2" stroke-linejoin="bevel" stroke-linecap="round" stroke="#000000" />
<path d="M-160,352 L160,352 224,416 224,576 320,672 576,672 768,864 " fill="none" stroke-width="2" stroke-linejoin="bevel" stroke-linecap="round" stroke="#000000" />
<path d="M1120,864 L1280,704 2080,704 " fill="none" stroke-width="2" stroke-linejoin="bevel" stroke-linecap="round" stroke="#000000" />
<ellipse cx="64" cy="2624" rx="112" ry="112" fill="#999999" stroke-width="2" stroke-linejoin="bevel" stroke-linecap="round" stroke="#999999" />
<ellipse cx="64" cy="2272" rx="112" ry="112" fill="#999999" stroke-width="2" stroke-linejoin="bevel" stroke-linecap="round" stroke="#999999" />
<ellipse cx="416" cy="2272" rx="112" ry="112" fill="#999999" stroke-width="2" stroke-linejoin="bevel" stroke-linecap="round" stroke="#999999" />
<ellipse cx="416" cy="2624" rx="112" ry="112" fill="#999999" stroke-width="2" stroke-linejoin="bevel" stroke-linecap="round" stroke="#999999" />
<ellipse cx="416" cy="2976" rx="112" ry="112" fill="#999999" stroke-width="2" stroke-linejoin="bevel" stroke-linecap="round" stroke="#999999" />
<ellipse cx="768" cy="2976" rx="112" ry="112" fill="#999999" stroke-width="2" stroke-linejoin="bevel" stroke-linecap="round" stroke="#999999" />
<ellipse cx="768" cy="2624" rx="112" ry="112" fill="#999999" stroke-width="2" stroke-linejoin="bevel" stroke-linecap="round" stroke="#999999" />
<ellipse cx="768" cy="2272" rx="112" ry="112" fill="#999999" stroke-width="2" stroke-linejoin="bevel" stroke-linecap="round" stroke="#999999" />
<ellipse cx="1120" cy="2272" rx="112" ry="112" fill="#999999" stroke-width="2" stroke-linejoin="bevel" stroke-linecap="round" stroke="#999999" />
<ellipse cx="1120" cy="2624" rx="112" ry="112" fill="#999999" stroke-width="2" stroke-linejoin="bevel" stroke-linecap="round" stroke="#999999" />
<ellipse cx="1120" cy="2976" rx="112" ry="112" fill="#999999" stroke-width="2" stroke-linejoin="bevel" stroke-linecap="round" stroke="#999999" />
<ellipse cx="1472" cy="2976" rx="112" ry="112" fill="#999999" stroke-width="2" stroke-linejoin="bevel" stroke-linecap="round" stroke="#999999" />
<ellipse cx="1472" cy="2624" rx="112" ry="112" fill="#999999" stroke-width="2" stroke-linejoin="bevel" stroke-linecap="round" stroke="#999999" />
<ellipse cx="1824" cy="2624" rx="112" ry="112" fill="#999999" stroke-width="2" stroke-linejoin="bevel" stroke-linecap="round" stroke="#999999" />
<ellipse cx="1824" cy="2272" rx="112" ry="112" fill="#999999" stroke-width="2" stroke-linejoin="bevel" stroke-linecap="round" stroke="#999999" />
<ellipse cx="1824" cy="1920" rx="112" ry="112" fill="#999999" stroke-width="2" stroke-linejoin="bevel" stroke-linecap="round" stroke="#999999" />
<ellipse cx="416" cy="1920" rx="112" ry="112" fill="#999999" stroke-width="2" stroke-linejoin="bevel" stroke-linecap="round" stroke="#999999" />
<ellipse cx="1472" cy="2272" rx="112" ry="112" fill="#999999" stroke-width="2" stroke-linejoin="bevel" stroke-linecap="round" stroke="#999999" />
<ellipse cx="768" cy="1920" rx="112" ry="112" fill="#999999" stroke-width="2" stroke-linejoin="bevel" stroke-linecap="round" stroke="#999999" />
<ellipse cx="64" cy="1920" rx="112" ry="112" fill="#999999" stroke-width="2" stroke-linejoin="bevel" stroke-linecap="round" stroke="#999999" />
<ellipse cx="1456" cy="1568" rx="112" ry="112" fill="#999999" stroke-width="2" stroke-linejoin="bevel" stroke-linecap="round" stroke="#999999" />
<ellipse cx="1808" cy="1568" rx="112" ry="112" fill="#999999" stroke-width="2" stroke-linejoin="bevel" stroke-linecap="round" stroke="#999999" />
<ellipse cx="416" cy="1216" rx="112" ry="112" fill="#999999" stroke-width="2" stroke-linejoin="bevel" stroke-linecap="round" stroke="#999999" />
<ellipse cx="64" cy="1216" rx="112" ry="112" fill="#999999" stroke-width="2" stroke-linejoin="bevel" stroke-linecap="round" stroke="#999999" />
<ellipse cx="64" cy="864" rx="112" ry="112" fill="#999999" stroke-width="2" stroke-linejoin="bevel" stroke-linecap="round" stroke="#999999" />
<ellipse cx="416" cy="864" rx="112" ry="112" fill="#999999" stroke-width="2" stroke-linejoin="bevel" stroke-linecap="round" stroke="#999999" />
<ellipse cx="64" cy="512" rx="112" ry="112" fill="#999999" stroke-width="2" stroke-linejoin="bevel" stroke-linecap="round" stroke="#999999" />
<ellipse cx="64" cy="-192" rx="112" ry="112" fill="#999999" stroke-width="2" stroke-linejoin="bevel" stroke-linecap="round" stroke="#999999" />
<ellipse cx="416" cy="-192" rx="112" ry="112" fill="#999999" stroke-width="2" stroke-linejoin="bevel" stroke-linecap="round" stroke="#999999" />
<ellipse cx="416" cy="160" rx="112" ry="112" fill="#999999" stroke-width="2" stroke-linejoin="bevel" stroke-linecap="round" stroke="#999999" />
<ellipse cx="768" cy="-192" rx="112" ry="112" fill="#999999" stroke-width="2" stroke-linejoin="bevel" stroke-linecap="round" stroke="#999999" />
<ellipse cx="768" cy="160" rx="112" ry="112" fill="#999999" stroke-width="2" stroke-linejoin="bevel" stroke-linecap="round" stroke="#999999" />
<ellipse cx="768" cy="512" rx="112" ry="112" fill="#999999" stroke-width="2" stroke-linejoin="bevel" stroke-linecap="round" stroke="#999999" />
<ellipse cx="1120" cy="512" rx="112" ry="112" fill="#999999" stroke-width="2" stroke-linejoin="bevel" stroke-linecap="round" stroke="#999999" />
<ellipse cx="1120" cy="160" rx="112" ry="112" fill="#999999" stroke-width="2" stroke-linejoin="bevel" stroke-linecap="round" stroke="#999999" />
<ellipse cx="1472" cy="160" rx="112" ry="112" fill="#999999" stroke-width="2" stroke-linejoin="bevel" stroke-linecap="round" stroke="#999999" />
<ellipse cx="416" cy="512" rx="112" ry="112" fill="#999999" stroke-width="2" stroke-linejoin="bevel" stroke-linecap="round" stroke="#999999" />
<ellipse cx="1472" cy="864" rx="112" ry="112" fill="#999999" stroke-width="2" stroke-linejoin="bevel" stroke-linecap="round" stroke="#999999" />
<ellipse cx="1472" cy="1216" rx="112" ry="112" fill="#999999" stroke-width="2" stroke-linejoin="bevel" stroke-linecap="round" stroke="#999999" />
<ellipse cx="1824" cy="1216" rx="112" ry="112" fill="#999999" stroke-width="2" stroke-linejoin="bevel" stroke-linecap="round" stroke="#999999" />
<ellipse cx="1824" cy="864" rx="112" ry="112" fill="#999999" stroke-width="2" stroke-linejoin="bevel" stroke-linecap="round" stroke="#999999" />
<ellipse cx="1824" cy="512" rx="112" ry="112" fill="#999999" stroke-width="2" stroke-linejoin="bevel" stroke-linecap="round" stroke="#999999" />
<ellipse cx="1472" cy="-192" rx="112" ry="112" fill="#999999" stroke-width="2" stroke-linejoin="bevel" stroke-linecap="round" stroke="#999999" />
<ellipse cx="1120" cy="-192" rx="112" ry="112" fill="#999999" stroke-width="2" stroke-linejoin="bevel" stroke-linecap="round" stroke="#999999" />
<ellipse cx="2800" cy="720" rx="80" ry="80" fill="#999999" stroke-width="2" stroke-linejoin="bevel" stroke-linecap="round" stroke="#999999" />
<ellipse cx="2800" cy="944" rx="81" ry="81" fill="#cd0000" stroke-width="2" stroke-linejoin="bevel" stroke-linecap="round" stroke="#cd0000" />
<ellipse cx="2800" cy="1168" rx="80" ry="80" fill="#a020f0" stroke-width="2" stroke-linejoin="bevel" stroke-linecap="round" stroke="#a020f0" />
<ellipse cx="2800" cy="1168" rx="80" ry="80" fill="none" stroke-width="2" stroke-linejoin="bevel" stroke-linecap="round" stroke="#000000" />
<ellipse cx="2800" cy="944" rx="80" ry="80" fill="none" stroke-width="2" stroke-linejoin="bevel" stroke-linecap="round" stroke="#000000" />
<ellipse cx="2800" cy="720" rx="80" ry="80" fill="none" stroke-width="2" stroke-linejoin="bevel" stroke-linecap="round" stroke="#000000" />
<g transform="matrix( 1.2    0   -0  1.2 2960 720)" fill="#000000" >
<text stroke="none" font-family="Helvetica" font-size="40" ><tspan x="0" y="15">Signal pad</tspan>
</text></g>
<g transform="matrix( 1.2    0   -0  1.2 2960 944)" fill="#000000" >
<text stroke="none" font-family="Helvetica" font-size="40" ><tspan x="0" y="15">Power pad</tspan>
</text></g>
<g transform="matrix( 1.2    0   -0  1.2 2976 1168)" fill="#000000" >
<text stroke="none" font-family="Helvetica" font-size="40" ><tspan x="0" y="15">Ground pad</tspan>
</text></g>
<ellipse cx="2816" cy="1472" rx="64" ry="64" fill="none" stroke-width="2" stroke-linejoin="bevel" stroke-linecap="round" stroke="#999999" />
<ellipse cx="2816" cy="1472" rx="128" ry="128" fill="none" stroke-width="2" stroke-linejoin="bevel" stroke-linecap="round" stroke="#999999" />
<g transform="matrix( 1.2    0   -0  1.2 2996 1463)" fill="#000000" >
<text stroke="none" font-family="Helvetica" font-size="40" ><tspan x="0" y="15">PCB via</tspan>
</text></g>
<path d="M1472,160 L1632,0 1632,-576 " fill="none" stroke-width="2" stroke-linejoin="bevel" stroke-linecap="round" stroke="#000000" />
<path d="M1472,-192 L1472,-576 " fill="none" stroke-width="2" stroke-linejoin="bevel" stroke-linecap="round" stroke="#000000" />
<path d="M1120,160 L1280,0 1280,-576 " fill="none" stroke-width="2" stroke-linejoin="bevel" stroke-linecap="round" stroke="#000000" />
<path d="M1120,-192 L1120,-576 " fill="none" stroke-width="2" stroke-linejoin="bevel" stroke-linecap="round" stroke="#000000" />
<path d="M768,160 L928,0 928,-576 " fill="none" stroke-width="2" stroke-linejoin="bevel" stroke-linecap="round" stroke="#000000" />
<path d="M768,-192 L768,-576 " fill="none" stroke-width="2" stroke-linejoin="bevel" stroke-linecap="round" stroke="#000000" />
<path d="M576,-576 L576,320 768,512 " fill="none" stroke-width="2" stroke-linejoin="bevel" stroke-linecap="round" stroke="#000000" />
<path d="M416,-192 L416,-576 " fill="none" stroke-width="2" stroke-linejoin="bevel" stroke-linecap="round" stroke="#000000" />
<path d="M416,160 L256,0 256,-576 " fill="none" stroke-width="2" stroke-linejoin="bevel" stroke-linecap="round" stroke="#000000" />
<path d="M1472,512 L1632,352 2080,352 " fill="none" stroke-width="2" stroke-linejoin="bevel" stroke-linecap="round" stroke="#000000" />
<path d="M1120,512 L1280,352 1536,352 1632,256 1632,96 1728,0 2080,0 " fill="none" stroke-width="2" stroke-linejoin="bevel" stroke-linecap="round" stroke="#000000" />
<path d="M1824,512 L2080,512 " fill="none" stroke-width="2" stroke-linejoin="bevel" stroke-linecap="round" stroke="#000000" />
<path d="M1824,864 L2080,864 " fill="none" stroke-width="2" stroke-linejoin="bevel" stroke-linecap="round" stroke="#000000" />
<path d="M1472,864 L1632,1024 2080,1024 " fill="none" stroke-width="2" stroke-linejoin="bevel" stroke-linecap="round" stroke="#000000" />
<path d="M1824,1216 L2080,1216 " fill="none" stroke-width="2" stroke-linejoin="bevel" stroke-linecap="round" stroke="#000000" />
<path d="M1824,1920 L2080,1920 " fill="none" stroke-width="2" stroke-linejoin="bevel" stroke-linecap="round" stroke="#000000" />
<path d="M1472,1920 L1632,2080 2080,2080 " fill="none" stroke-width="2" stroke-linejoin="bevel" stroke-linecap="round" stroke="#000000" />
<path d="M1824,2272 L2080,2272 " fill="none" stroke-width="2" stroke-linejoin="bevel" stroke-linecap="round" stroke="#000000" />
<path d="M1472,1216 L1632,1376 2080,1376 " fill="none" stroke-width="2" stroke-linejoin="bevel" stroke-linecap="round" stroke="#000000" />
<path d="M1472,2272 L1664,2432 2080,2432 " fill="none" stroke-width="2" stroke-linejoin="bevel" stroke-linecap="round" stroke="#000000" />
<path d="M1824,2624 L2080,2624 " fill="none" stroke-width="2" stroke-linejoin="bevel" stroke-linecap="round" stroke="#000000" />
<path d="M1120,2272 L1280,2432 1536,2432 1632,2528 1632,2688 1728,2784 2048,2784 " fill="none" stroke-width="2" stroke-linejoin="bevel" stroke-linecap="round" stroke="#000000" />
<path d="M1472,2624 L1632,2784 1632,3296 " fill="none" stroke-width="2" stroke-linejoin="bevel" stroke-linecap="round" stroke="#000000" />
<path d="M1472,2976 L1472,3296 " fill="none" stroke-width="2" stroke-linejoin="bevel" stroke-linecap="round" stroke="#000000" />
<path d="M1120,2624 L1280,2784 1280,3296 " fill="none" stroke-width="2" stroke-linejoin="bevel" stroke-linecap="round" stroke="#000000" />
<path d="M1120,2976 L1120,3296 " fill="none" stroke-width="2" stroke-linejoin="bevel" stroke-linecap="round" stroke="#000000" />
<path d="M1120,1920 L960,2080 960,3296 " fill="none" stroke-width="2" stroke-linejoin="bevel" stroke-linecap="round" stroke="#000000" />
<path d="M768,2976 L768,3296 " fill="none" stroke-width="2" stroke-linejoin="bevel" stroke-linecap="round" stroke="#000000" />
<path d="M768,2624 L608,2784 608,3296 " fill="none" stroke-width="2" stroke-linejoin="bevel" stroke-linecap="round" stroke="#000000" />
<path d="M768,2272 L576,2464 576,2720 512,2784 352,2784 224,2912 224,3296 " fill="none" stroke-width="2" stroke-linejoin="bevel" stroke-linecap="round" stroke="#000000" />
<path d="M416,2624 L256,2784 -192,2784 " fill="none" stroke-width="2" stroke-linejoin="bevel" stroke-linecap="round" stroke="#000000" />
<path d="M-192,2624 L64,2624 " fill="none" stroke-width="2" stroke-linejoin="bevel" stroke-linecap="round" stroke="#000000" />
<path d="M-192,2272 L64,2272 " fill="none" stroke-width="2" stroke-linejoin="bevel" stroke-linecap="round" stroke="#000000" />
<path d="M-192,1920 L64,1920 " fill="none" stroke-width="2" stroke-linejoin="bevel" stroke-linecap="round" stroke="#000000" />
<path d="M-192,1568 L64,1568 " fill="none" stroke-width="2" stroke-linejoin="bevel" stroke-linecap="round" stroke="#000000" />
<path d="M416,1568 L256,1408 -192,1408 " fill="none" stroke-width="2" stroke-linejoin="bevel" stroke-linecap="round" stroke="#000000" />
<path d="M416,1216 L256,1056 -192,1056 " fill="none" stroke-width="2" stroke-linejoin="bevel" stroke-linecap="round" stroke="#000000" />
<path d="M-192,1216 L64,1216 " fill="none" stroke-width="2" stroke-linejoin="bevel" stroke-linecap="round" stroke="#000000" />
<path d="M-192,864 L64,864 " fill="none" stroke-width="2" stroke-linejoin="bevel" stroke-linecap="round" stroke="#000000" />
<path d="M416,864 L256,704 -192,704 " fill="none" stroke-width="2" stroke-linejoin="bevel" stroke-linecap="round" stroke="#000000" />
<path d="M-192,512 L64,512 " fill="none" stroke-width="2" stroke-linejoin="bevel" stroke-linecap="round" stroke="#000000" />
<path d="M64,-192 L-192,-448 " fill="none" stroke-width="2" stroke-linejoin="bevel" stroke-linecap="round" stroke="#000000" />
<ellipse cx="1824" cy="-192" rx="112" ry="112" fill="#999999" stroke-width="2" stroke-linejoin="bevel" stroke-linecap="round" stroke="#999999" />
<ellipse cx="1824" cy="-192" rx="112" ry="112" fill="none" stroke-width="2" stroke-linejoin="bevel" stroke-linecap="round" stroke="#000000" />
<path d="M1824,-192 L2080,-448 " fill="none" stroke-width="2" stroke-linejoin="bevel" stroke-linecap="round" stroke="#000000" />
<ellipse cx="1472" cy="-192" rx="112" ry="112" fill="none" stroke-width="2" stroke-linejoin="bevel" stroke-linecap="round" stroke="#000000" />
<ellipse cx="1120" cy="-192" rx="112" ry="112" fill="none" stroke-width="2" stroke-linejoin="bevel" stroke-linecap="round" stroke="#000000" />
<ellipse cx="768" cy="-192" rx="112" ry="112" fill="none" stroke-width="2" stroke-linejoin="bevel" stroke-linecap="round" stroke="#000000" />
<ellipse cx="416" cy="-192" rx="112" ry="112" fill="none" stroke-width="2" stroke-linejoin="bevel" stroke-linecap="round" stroke="#000000" />
<ellipse cx="64" cy="-192" rx="112" ry="112" fill="none" stroke-width="2" stroke-linejoin="bevel" stroke-linecap="round" stroke="#000000" />
<ellipse cx="416" cy="160" rx="112" ry="112" fill="none" stroke-width="2" stroke-linejoin="bevel" stroke-linecap="round" stroke="#000000" />
<ellipse cx="768" cy="160" rx="112" ry="112" fill="none" stroke-width="2" stroke-linejoin="bevel" stroke-linecap="round" stroke="#000000" />
<ellipse cx="1120" cy="160" rx="112" ry="112" fill="none" stroke-width="2" stroke-linejoin="bevel" stroke-linecap="round" stroke="#000000" />
<ellipse cx="1472" cy="160" rx="112" ry="112" fill="none" stroke-width="2" stroke-linejoin="bevel" stroke-linecap="round" stroke="#000000" />
<ellipse cx="64" cy="512" rx="112" ry="112" fill="none" stroke-width="2" stroke-linejoin="bevel" stroke-linecap="round" stroke="#000000" />
<ellipse cx="768" cy="512" rx="112" ry="112" fill="none" stroke-width="2" stroke-linejoin="bevel" stroke-linecap="round" stroke="#000000" />
<ellipse cx="1120" cy="512" rx="112" ry="112" fill="none" stroke-width="2" stroke-linejoin="bevel" stroke-linecap="round" stroke="#000000" />
<ellipse cx="416" cy="512" rx="112" ry="112" fill="none" stroke-width="2" stroke-linejoin="bevel" stroke-linecap="round" stroke="#000000" />
<ellipse cx="1824" cy="512" rx="112" ry="112" fill="none" stroke-width="2" stroke-linejoin="bevel" stroke-linecap="round" stroke="#000000" />
<ellipse cx="64" cy="864" rx="112" ry="112" fill="none" stroke-width="2" stroke-linejoin="bevel" stroke-linecap="round" stroke="#000000" />
<ellipse cx="416" cy="864" rx="112" ry="112" fill="none" stroke-width="2" stroke-linejoin="bevel" stroke-linecap="round" stroke="#000000" />
<ellipse cx="1472" cy="864" rx="112" ry="112" fill="none" stroke-width="2" stroke-linejoin="bevel" stroke-linecap="round" stroke="#000000" />
<ellipse cx="1824" cy="864" rx="112" ry="112" fill="none" stroke-width="2" stroke-linejoin="bevel" stroke-linecap="round" stroke="#000000" />
<ellipse cx="64" cy="1216" rx="112" ry="112" fill="none" stroke-width="2" stroke-linejoin="bevel" stroke-linecap="round" stroke="#000000" />
<ellipse cx="416" cy="1216" rx="112" ry="112" fill="none" stroke-width="2" stroke-linejoin="bevel" stroke-linecap="round" stroke="#000000" />
<ellipse cx="1472" cy="1216" rx="112" ry="112" fill="none" stroke-width="2" stroke-linejoin="bevel" stroke-linecap="round" stroke="#000000" />
<ellipse cx="1824" cy="1216" rx="112" ry="112" fill="none" stroke-width="2" stroke-linejoin="bevel" stroke-linecap="round" stroke="#000000" />
<ellipse cx="1456" cy="1568" rx="112" ry="112" fill="none" stroke-width="2" stroke-linejoin="bevel" stroke-linecap="round" stroke="#000000" />
<path d="M1472,1568 L1632,1728 2080,1728 " fill="none" stroke-width="2" stroke-linejoin="bevel" stroke-linecap="round" stroke="#000000" />
<ellipse cx="64" cy="1920" rx="112" ry="112" fill="none" stroke-width="2" stroke-linejoin="bevel" stroke-linecap="round" stroke="#000000" />
<ellipse cx="768" cy="1920" rx="112" ry="112" fill="none" stroke-width="2" stroke-linejoin="bevel" stroke-linecap="round" stroke="#000000" />
<ellipse cx="416" cy="1920" rx="112" ry="112" fill="none" stroke-width="2" stroke-linejoin="bevel" stroke-linecap="round" stroke="#000000" />
<ellipse cx="1824" cy="1920" rx="112" ry="112" fill="none" stroke-width="2" stroke-linejoin="bevel" stroke-linecap="round" stroke="#000000" />
<ellipse cx="64" cy="2272" rx="112" ry="112" fill="none" stroke-width="2" stroke-linejoin="bevel" stroke-linecap="round" stroke="#000000" />
<ellipse cx="416" cy="2272" rx="112" ry="112" fill="none" stroke-width="2" stroke-linejoin="bevel" stroke-linecap="round" stroke="#000000" />
<path d="M416,2272 L256,2432 -192,2432 " fill="none" stroke-width="2" stroke-linejoin="bevel" stroke-linecap="round" stroke="#000000" />
<ellipse cx="768" cy="2272" rx="112" ry="112" fill="none" stroke-width="2" stroke-linejoin="bevel" stroke-linecap="round" stroke="#000000" />
<ellipse cx="1120" cy="2272" rx="112" ry="112" fill="none" stroke-width="2" stroke-linejoin="bevel" stroke-linecap="round" stroke="#000000" />
<ellipse cx="1472" cy="2272" rx="112" ry="112" fill="none" stroke-width="2" stroke-linejoin="bevel" stroke-linecap="round" stroke="#000000" />
<ellipse cx="1824" cy="2272" rx="112" ry="112" fill="none" stroke-width="2" stroke-linejoin="bevel" stroke-linecap="round" stroke="#000000" />
<ellipse cx="1824" cy="2624" rx="112" ry="112" fill="none" stroke-width="2" stroke-linejoin="bevel" stroke-linecap="round" stroke="#000000" />
<ellipse cx="1472" cy="2624" rx="112" ry="112" fill="none" stroke-width="2" stroke-linejoin="bevel" stroke-linecap="round" stroke="#000000" />
<ellipse cx="1120" cy="2624" rx="112" ry="112" fill="none" stroke-width="2" stroke-linejoin="bevel" stroke-linecap="round" stroke="#000000" />
<ellipse cx="768" cy="2624" rx="112" ry="112" fill="none" stroke-width="2" stroke-linejoin="bevel" stroke-linecap="round" stroke="#000000" />
<ellipse cx="416" cy="2624" rx="112" ry="112" fill="none" stroke-width="2" stroke-linejoin="bevel" stroke-linecap="round" stroke="#000000" />
<ellipse cx="64" cy="2624" rx="112" ry="112" fill="none" stroke-width="2" stroke-linejoin="bevel" stroke-linecap="round" stroke="#000000" />
<ellipse cx="416" cy="2976" rx="112" ry="112" fill="none" stroke-width="2" stroke-linejoin="bevel" stroke-linecap="round" stroke="#000000" />
<path d="M416,2976 L416,3296 " fill="none" stroke-width="2" stroke-linejoin="bevel" stroke-linecap="round" stroke="#000000" />
<ellipse cx="768" cy="2976" rx="112" ry="112" fill="none" stroke-width="2" stroke-linejoin="bevel" stroke-linecap="round" stroke="#000000" />
<ellipse cx="1120" cy="2976" rx="112" ry="112" fill="none" stroke-width="2" stroke-linejoin="bevel" stroke-linecap="round" stroke="#000000" />
<ellipse cx="1472" cy="2976" rx="112" ry="112" fill="none" stroke-width="2" stroke-linejoin="bevel" stroke-linecap="round" stroke="#000000" />
<path d="M416,512 L224,320 224,64 128,-32 -192,-32 " fill="none" stroke-width="2" stroke-linejoin="bevel" stroke-linecap="round" stroke="#000000" />
<path d="M416,1920 L256,1760 -192,1760 " fill="none" stroke-width="2" stroke-linejoin="bevel" stroke-linecap="round" stroke="#000000" />
<path d="M768,1920 L608,2080 -192,2080 " fill="none" stroke-width="2" stroke-linejoin="bevel" stroke-linecap="round" stroke="#000000" />
<g transform="matrix(1.75    0   -0 1.75 2112 -496)" fill="#000000" >
<text stroke="none" font-family="Helvetica" font-size="40" ><tspan x="0" y="0">mprj_io[23]</tspan>
</text></g>
<g transform="matrix(-2.04566e-11 -1.75 1.75 -2.04566e-11 1472 -624)" fill="#000000" >
<text stroke="none" font-family="Helvetica" font-size="40" ><tspan x="0" y="15">mprj_io[21]</tspan>
</text></g>
<g transform="matrix(-2.04566e-11 -1.75 1.75 -2.04566e-11 1120 -624)" fill="#000000" >
<text stroke="none" font-family="Helvetica" font-size="40" ><tspan x="0" y="15">mprj_io[19]</tspan>
</text></g>
<g transform="matrix(-2.04566e-11 -1.75 1.75 -2.04566e-11 768 -624)" fill="#000000" >
<text stroke="none" font-family="Helvetica" font-size="40" ><tspan x="0" y="15">mprj_io[18]</tspan>
</text></g>
<g transform="matrix(-2.04566e-11 -1.75 1.75 -2.04566e-11 416 -624)" fill="#000000" >
<text stroke="none" font-family="Helvetica" font-size="40" ><tspan x="0" y="15">mprj_io[16]</tspan>
</text></g>
<g transform="matrix(1.75 -2.72755e-11 2.72755e-11 1.75 -256 -480)" fill="#000000" >
<text stroke="none" font-family="Helvetica" font-size="40" ><tspan x="-198" y="15">mprj_io[15]</tspan>
</text></g>
<g transform="matrix(1.75 -2.72755e-11 2.72755e-11 1.75 -240 160)" fill="#000000" >
<text stroke="none" font-family="Helvetica" font-size="40" ><tspan x="-105" y="15">vccd1</tspan>
</text></g>
<g transform="matrix(1.75    0   -0 1.75 1856 -368)" fill="#000000" >
<text stroke="none" font-family="Helvetica"  font-weight="bold" font-size="40" ><tspan x="0" y="0">A</tspan>
</text></g>
<g transform="matrix(1.75    0   -0 1.75 1520 -368)" fill="#000000" >
<text stroke="none" font-family="Helvetica"  font-weight="bold" font-size="40" ><tspan x="0" y="0">B</tspan>
</text></g>
<g transform="matrix(1.75    0   -0 1.75 1152 -368)" fill="#000000" >
<text stroke="none" font-family="Helvetica"  font-weight="bold" font-size="40" ><tspan x="0" y="0">C</tspan>
</text></g>
<g transform="matrix(1.75    0   -0 1.75 816 -368)" fill="#000000" >
<text stroke="none" font-family="Helvetica"  font-weight="bold" font-size="40" ><tspan x="0" y="0">D</tspan>
</text></g>
<g transform="matrix(1.75    0   -0 1.75 448 -368)" fill="#000000" >
<text stroke="none" font-family="Helvetica"  font-weight="bold" font-size="40" ><tspan x="0" y="0">E</tspan>
</text></g>
<g transform="matrix(1.75    0   -0 1.75  96 -368)" fill="#000000" >
<text stroke="none" font-family="Helvetica"  font-weight="bold" font-size="40" ><tspan x="0" y="0">F</tspan>
</text></g>
<g transform="matrix(1.75    0   -0 1.75 1968 -224)" fill="#000000" >
<text stroke="none" font-family="Helvetica"  font-weight="bold" font-size="40" ><tspan x="0" y="0">1</tspan>
</text></g>
<g transform="matrix(1.75    0   -0 1.75 1968 128)" fill="#000000" >
<text stroke="none" font-family="Helvetica"  font-weight="bold" font-size="40" ><tspan x="0" y="0">2</tspan>
</text></g>
<g transform="matrix(1.75    0   -0 1.75 1968 480)" fill="#000000" >
<text stroke="none" font-family="Helvetica"  font-weight="bold" font-size="40" ><tspan x="0" y="0">3</tspan>
</text></g>
<g transform="matrix(1.75    0   -0 1.75 1968 816)" fill="#000000" >
<text stroke="none" font-family="Helvetica"  font-weight="bold" font-size="40" ><tspan x="0" y="0">4</tspan>
</text></g>
<g transform="matrix(1.75    0   -0 1.75 1968 1168)" fill="#000000" >
<text stroke="none" font-family="Helvetica"  font-weight="bold" font-size="40" ><tspan x="0" y="0">5</tspan>
</text></g>
<g transform="matrix(1.75    0   -0 1.75 1952 1520)" fill="#000000" >
<text stroke="none" font-family="Helvetica"  font-weight="bold" font-size="40" ><tspan x="0" y="0">6</tspan>
</text></g>
<g transform="matrix(1.75    0   -0 1.75 1968 1888)" fill="#000000" >
<text stroke="none" font-family="Helvetica"  font-weight="bold" font-size="40" ><tspan x="0" y="0">7</tspan>
</text></g>
<g transform="matrix(1.75    0   -0 1.75 1968 2224)" fill="#000000" >
<text stroke="none" font-family="Helvetica"  font-weight="bold" font-size="40" ><tspan x="0" y="0">8</tspan>
</text></g>
<g transform="matrix(1.75    0   -0 1.75 1968 2576)" fill="#000000" >
<text stroke="none" font-family="Helvetica"  font-weight="bold" font-size="40" ><tspan x="0" y="0">9</tspan>
</text></g>
<g transform="matrix(1.75    0   -0 1.75 1952 2944)" fill="#000000" >
<text stroke="none" font-family="Helvetica"  font-weight="bold" font-size="40" ><tspan x="0" y="0">10</tspan>
</text></g>
<g transform="matrix(1.75    0   -0 1.75 2144 160)" fill="#000000" >
<text stroke="none" font-family="Helvetica" font-size="40" ><tspan x="0" y="0">vccd2</tspan>
</text></g>
<g transform="matrix(1.75    0   -0 1.75 2128 496)" fill="#000000" >
<text stroke="none" font-family="Helvetica" font-size="40" ><tspan x="0" y="15">mprj_io[25]</tspan>
</text></g>
<g transform="matrix(1.75    0   -0 1.75 2128 864)" fill="#000000" >
<text stroke="none" font-family="Helvetica" font-size="40" ><tspan x="0" y="15">mprj_io[27]</tspan>
</text></g>
<g transform="matrix(1.75    0   -0 1.75 2112 1216)" fill="#000000" >
<text stroke="none" font-family="Helvetica" font-size="40" ><tspan x="0" y="15">mprj_io[29]</tspan>
</text></g>
<path d="M1824,1568 L2080,1568 " fill="none" stroke-width="2" stroke-linejoin="bevel" stroke-linecap="round" stroke="#000000" />
<g transform="matrix(1.75    0   -0 1.75 2112 1568)" fill="#000000" >
<text stroke="none" font-family="Helvetica" font-size="40" ><tspan x="0" y="15">mprj_io[31]</tspan>
</text></g>
<g transform="matrix(1.75    0   -0 1.75 2128 1904)" fill="#000000" >
<text stroke="none" font-family="Helvetica" font-size="40" ><tspan x="0" y="15">mprj_io[32]</tspan>
</text></g>
<g transform="matrix(1.75    0   -0 1.75 2112 2272)" fill="#000000" >
<text stroke="none" font-family="Helvetica" font-size="40" ><tspan x="0" y="15">mprj_io[35]</tspan>
</text></g>
<g transform="matrix(1.75    0   -0 1.75 2112 2624)" fill="#000000" >
<text stroke="none" font-family="Helvetica" font-size="40" ><tspan x="0" y="15">mprj_io[37]</tspan>
</text></g>
<g transform="matrix(1.75    0   -0 1.75 2096 3232)" fill="#000000" >
<text stroke="none" font-family="Helvetica" font-size="40" ><tspan x="0" y="15">vdda</tspan>
</text></g>
<g transform="matrix(1.75    0   -0 1.75 2128   0)" fill="#000000" >
<text stroke="none" font-family="Helvetica" font-size="40" ><tspan x="0" y="15">mprj_io[24]</tspan>
</text></g>
<g transform="matrix(1.75    0   -0 1.75 2112 352)" fill="#000000" >
<text stroke="none" font-family="Helvetica" font-size="40" ><tspan x="0" y="14">vssa2</tspan>
</text></g>
<g transform="matrix(1.75    0   -0 1.75 2128 704)" fill="#000000" >
<text stroke="none" font-family="Helvetica" font-size="40" ><tspan x="0" y="15">vddio</tspan>
</text></g>
<g transform="matrix(1.75    0   -0 1.75 2128 1024)" fill="#000000" >
<text stroke="none" font-family="Helvetica" font-size="40" ><tspan x="0" y="15">mprj_io[26]</tspan>
</text></g>
<g transform="matrix(1.75    0   -0 1.75 2128 1376)" fill="#000000" >
<text stroke="none" font-family="Helvetica" font-size="40" ><tspan x="0" y="15">mprj_io[28]</tspan>
</text></g>
<g transform="matrix(1.75    0   -0 1.75 2128 1728)" fill="#000000" >
<text stroke="none" font-family="Helvetica" font-size="40" ><tspan x="0" y="15">mprj_io[30]</tspan>
</text></g>
<g transform="matrix(1.75    0   -0 1.75 2144 2080)" fill="#000000" >
<text stroke="none" font-family="Helvetica" font-size="40" ><tspan x="0" y="15">vssd2</tspan>
</text></g>
<g transform="matrix(1.75    0   -0 1.75 2128 2432)" fill="#000000" >
<text stroke="none" font-family="Helvetica" font-size="40" ><tspan x="0" y="15">mprj_io[34]</tspan>
</text></g>
<g transform="matrix(1.75    0   -0 1.75 2112 2784)" fill="#000000" >
<text stroke="none" font-family="Helvetica" font-size="40" ><tspan x="0" y="15">mprj_io[33]</tspan>
</text></g>
<g transform="matrix(-2.04566e-11 -1.75 1.75 -2.04566e-11 1632 -624)" fill="#000000" >
<text stroke="none" font-family="Helvetica" font-size="40" ><tspan x="0" y="15">mprj_io[22]</tspan>
</text></g>
<g transform="matrix(-2.04566e-11 -1.75 1.75 -2.04566e-11 1280 -640)" fill="#000000" >
<text stroke="none" font-family="Helvetica" font-size="40" ><tspan x="0" y="15">mprj_io[20]</tspan>
</text></g>
<g transform="matrix(-2.04566e-11 -1.75 1.75 -2.04566e-11 928 -640)" fill="#000000" >
<text stroke="none" font-family="Helvetica" font-size="40" ><tspan x="0" y="15">mprj_io[17]</tspan>
</text></g>
<g transform="matrix(-2.04566e-11 -1.75 1.75 -2.04566e-11 576 -640)" fill="#000000" >
<text stroke="none" font-family="Helvetica" font-size="40" ><tspan x="0" y="15">mprj_io[13]</tspan>
</text></g>
<g transform="matrix(-2.04566e-11 -1.75 1.75 -2.04566e-11 240 -640)" fill="#000000" >
<text stroke="none" font-family="Helvetica" font-size="40" ><tspan x="0" y="15">mprj_io[14]</tspan>
</text></g>
<g transform="matrix(1.75    0   -0 1.75 -240 352)" fill="#000000" >
<text stroke="none" font-family="Helvetica" font-size="40" ><tspan x="-110" y="15">vdda1</tspan>
</text></g>
<g transform="matrix(1.75    0   -0 1.75 -240 -32)" fill="#000000" >
<text stroke="none" font-family="Helvetica" font-size="40" ><tspan x="-393" y="15">mprj_io[11]/flash2_io1</tspan>
</text></g>
<g transform="matrix(1.75    0   -0 1.75 -256 512)" fill="#000000" >
<text stroke="none" font-family="Helvetica" font-size="40" ><tspan x="-198" y="15">mprj_io[12]</tspan>
</text></g>
<g transform="matrix(1.75    0   -0 1.75 -288 704)" fill="#000000" >
<text stroke="none" font-family="Helvetica" font-size="40" ><tspan x="-377" y="15">mprj_io[9]/flash2_sck</tspan>
</text></g>
<g transform="matrix(1.75    0   -0 1.75 -288 864)" fill="#000000" >
<text stroke="none" font-family="Helvetica" font-size="40" ><tspan x="-393" y="15">mprj_io[10]/flash2_io0</tspan>
</text></g>
<g transform="matrix(1.75    0   -0 1.75 -304 1056)" fill="#000000" >
<text stroke="none" font-family="Helvetica" font-size="40" ><tspan x="-232" y="15">mprj_io[7]/irq</tspan>
</text></g>
<g transform="matrix(1.75    0   -0 1.75 -304 1216)" fill="#000000" >
<text stroke="none" font-family="Helvetica" font-size="40" ><tspan x="-379" y="15">mprj_io[8]/flash2_csb</tspan>
</text></g>
<g transform="matrix(1.75    0   -0 1.75 -304 1392)" fill="#000000" >
<text stroke="none" font-family="Helvetica" font-size="40" ><tspan x="-105" y="14">vssa1</tspan>
</text></g>
<g transform="matrix(1.75    0   -0 1.75 -320 1568)" fill="#000000" >
<text stroke="none" font-family="Helvetica" font-size="40" ><tspan x="-105" y="15">vssd1</tspan>
</text></g>
<g transform="matrix(1.75    0   -0 1.75 -320 1760)" fill="#000000" >
<text stroke="none" font-family="Helvetica" font-size="40" ><tspan x="-298" y="15">mrpj_io[5]/ser_rx</tspan>
</text></g>
<g transform="matrix(1.75    0   -0 1.75 -336 1920)" fill="#000000" >
<text stroke="none" font-family="Helvetica" font-size="40" ><tspan x="-296" y="15">mprj_io[6]/ser_tx</tspan>
</text></g>
<g transform="matrix(1.75    0   -0 1.75 -336 2064)" fill="#000000" >
<text stroke="none" font-family="Helvetica" font-size="40" ><tspan x="-290" y="15">mprj_io[0]/JTAG</tspan>
</text></g>
<g transform="matrix(1.75    0   -0 1.75 -336 2272)" fill="#000000" >
<text stroke="none" font-family="Helvetica" font-size="40" ><tspan x="-270" y="15">mprj_io[4]/SCK</tspan>
</text></g>
<g transform="matrix(1.75    0   -0 1.75 -352 2432)" fill="#000000" >
<text stroke="none" font-family="Helvetica" font-size="40" ><tspan x="-270" y="15">mprj_io[3]/CSB</tspan>
</text></g>
<g transform="matrix(1.75    0   -0 1.75 -352 2624)" fill="#000000" >
<text stroke="none" font-family="Helvetica" font-size="40" ><tspan x="-254" y="15">mprj_io[2]/SDI</tspan>
</text></g>
<g transform="matrix(1.75    0   -0 1.75 -352 2784)" fill="#000000" >
<text stroke="none" font-family="Helvetica" font-size="40" ><tspan x="-274" y="15">mprj_io[1]/SDO</tspan>
</text></g>
<g transform="matrix(1.75    0   -0 1.75 -288 3232)" fill="#000000" >
<text stroke="none" font-family="Helvetica" font-size="40" ><tspan x="-87" y="15">vdda</tspan>
</text></g>
<g transform="matrix(1.75    0   -0 1.75 944 1392)" fill="#000000" >
<text stroke="none" font-family="Helvetica" font-size="40" ><tspan x="-139" y="15">vssio/vssa/vssd</tspan>
</text></g>
<g transform="matrix(-2.04566e-11 -1.75 1.75 -2.04566e-11 224 3360)" fill="#000000" >
<text stroke="none" font-family="Helvetica" font-size="40" ><tspan x="-156" y="15">flash_clk</tspan>
</text></g>
<g transform="matrix(-2.04566e-11 -1.75 1.75 -2.04566e-11 416 3360)" fill="#000000" >
<text stroke="none" font-family="Helvetica" font-size="40" ><tspan x="-76" y="15">gpio</tspan>
</text></g>
<g transform="matrix(-2.04566e-11 -1.75 1.75 -2.04566e-11 608 3360)" fill="#000000" >
<text stroke="none" font-family="Helvetica" font-size="40" ><tspan x="-161" y="15">flash_io1</tspan>
</text></g>
<g transform="matrix(-2.04566e-11 -1.75 1.75 -2.04566e-11 768 3360)" fill="#000000" >
<text stroke="none" font-family="Helvetica" font-size="40" ><tspan x="-161" y="15">flash_io0</tspan>
</text></g>
<g transform="matrix(-2.04566e-11 -1.75 1.75 -2.04566e-11 960 3360)" fill="#000000" >
<text stroke="none" font-family="Helvetica" font-size="40" ><tspan x="-110" y="15">vdda2</tspan>
</text></g>
<g transform="matrix(-2.04566e-11 -1.75 1.75 -2.04566e-11 1120 3344)" fill="#000000" >
<text stroke="none" font-family="Helvetica" font-size="40" ><tspan x="-170" y="15">flash_csb</tspan>
</text></g>
<g transform="matrix(-2.04566e-11 -1.75 1.75 -2.04566e-11 1280 3360)" fill="#000000" >
<text stroke="none" font-family="Helvetica" font-size="40" ><tspan x="-91" y="15">clock</tspan>
</text></g>
<g transform="matrix(-2.04566e-11 -1.75 1.75 -2.04566e-11 1472 3360)" fill="#000000" >
<text stroke="none" font-family="Helvetica" font-size="40" ><tspan x="-112" y="15">resetb</tspan>
</text></g>
<g transform="matrix(-2.04566e-11 -1.75 1.75 -2.04566e-11 1632 3360)" fill="#000000" >
<text stroke="none" font-family="Helvetica" font-size="40" ><tspan x="-198" y="15">mprj_io[36]</tspan>
</text></g>
<path visibility="hidden" d="M-973,-1331 L-973,3710 3244,3710 3244,-1331 z" fill="none" stroke-width="2" stroke-linejoin="bevel" stroke-linecap="round" stroke="#adff2f" />
</g>
</svg>
